<svg xmlns="http://www.w3.org/2000/svg" viewBox="0 0 213.99 338.03"><g id="Camada_2" data-name="Camada 2"><g id="Camada_1-2" data-name="Camada 1"><path d="M81.35,234.19q0-43.5,0-87c0-6.48,0-6.51-6.47-4.86C63.92,145.14,53,148,42,150.77c-2.78.7-5.93,2.43-8.22-.86-2.09-3,.31-5.33,1.78-7.66,4.18-6.62,8.25-13.32,12.72-19.73,2.46-3.51,2.77-5-2-6.67-13.37-4.6-26.56-9.75-39.77-14.8C3.74,100-.22,99.76,0,95.38c.25-4.82,4.57-4.22,7.56-4.84,13.52-2.83,27.06-5.59,40.67-8,4.3-.75,3.71-2,1.89-4.87-7.44-11.85-14.68-23.82-22-35.75-1.41-2.29-3.12-4.64-.66-7.21s4.82-1,7.22.3Q53.65,45.65,72.63,56.21C78.15,59.3,78.15,59.31,80,53Q87.27,29.15,94.52,5.25c.62-2,1-4.49,3.49-5.06,4.39-1,5.41,2,6,5.41,2.66,16.27,5.48,32.51,7.94,48.8.61,4,1.69,3.78,4.45,1.8,6.09-4.37,12.36-8.49,18.53-12.74,2-1.4,4.15-2.39,6.41-.7,2.06,1.54,1.79,3.66,1.25,5.91-2.83,12-5.44,24-8.44,36-.95,3.76-.37,4.75,3.67,4.71,20-.21,40-.1,60-.09,11,0,16.19,5.21,16.19,16.24q0,108.24,0,216.48c0,10.65-5.36,16-15.95,16q-50.25,0-100.49,0c-10.9,0-16.18-5.34-16.19-16.33Q81.32,277.94,81.35,234.19ZM205.29,213.8V106.37c0-7.6-.83-8.45-8.21-8.46q-49.46,0-98.92,0C91.08,97.92,90,99,90,106q0,107.67,0,215.34c0,6.72,1.23,8,7.76,8q49.71,0,99.43,0c7,0,8.08-1,8.08-8.11Q205.31,267.51,205.29,213.8ZM21.31,96.57c1.41,2,3.21,2,4.69,2.6,10.24,3.91,20.54,7.71,30.8,11.6,5.84,2.22,6.46,4.06,3.2,9.22-4.17,6.59-8.4,13.14-13.24,20.72,11.68-3,22.25-5.74,32.84-8.43,2.42-.62,1.7-2.57,1.71-4.07.07-8,0-16,.06-24,.12-9.44,5.59-14.89,14.93-15,8.16-.06,16.32,0,24.48,0,1.83,0,3.62.25,4.19-2.33,2.21-10,4.55-20.05,7.07-31.07-6.6,4.49-12.34,8.44-18.11,12.32-5.25,3.53-7.87,2.46-8.9-3.64-1.71-10.17-3.26-20.37-5.1-30.51-.54-3-.29-6.2-2.3-9.4C93.4,38.5,89.38,51.85,85.25,65.18c-1.56,5-3.5,5.78-8.11,3.33-3.53-1.87-7-3.86-10.47-5.8l-22.3-12.4c5.43,10.48,11.44,20.22,17.41,30,3.32,5.46,2.31,7.77-3.87,9C45.85,91.71,33.78,94.1,21.31,96.57Z"/><path d="M147.83,246.83c-9.83,0-19.66.07-29.49,0-12.33-.1-19.83-7.66-19.91-20.06q-.09-16.75,0-33.49c.1-12.37,7.67-20,20-19.9,3.72,0,6.5-.32,8.59-4.11,1.84-3.34,5.67-4.6,9.49-4.66,7.32-.13,14.66-.12,22,0,4.62.07,8.59,1.92,10.87,6,1.43,2.55,3.31,2.72,5.73,2.74,15,.12,21.82,7,21.83,22.14,0,10.5.05,21,0,31.49-.07,12.07-7.62,19.68-19.62,19.85-5,.06-10,0-15,0Zm-.21-8.61c10,0,20,.06,29.95,0,6.52-.06,10.56-3.76,10.63-10q.21-18.22,0-36.44c-.08-5.83-3.91-9.48-9.82-9.75-3-.14-6-.08-9,0-3.33.07-5.88-.72-6.42-4.63-.4-2.92-2.33-4.19-5.26-4.18q-10,.08-20,0c-2.67,0-4.84,1-5.19,3.61-.63,4.74-3.62,5.39-7.49,5.21-2.32-.11-4.66-.05-7,0-7.36.16-10.94,3.74-11,11.16q-.11,17,0,33.94c0,7.28,3.82,11.06,11.09,11.11C128,238.27,137.81,238.22,147.62,238.22Z"/><path d="M147.15,316.13c-4.66,0-9.33-.06-14,0-3.09.05-5.44-1-5.47-4.35,0-3.08,2.2-4.3,5-4.31q15-.06,30,0c2.84,0,5.07,1.34,5,4.37s-2.14,4.29-5.09,4.28C157.48,316.11,152.32,316.13,147.15,316.13Z"/><path d="M123.9,208.65a23.8,23.8,0,1,1,23.82,23.67A23.66,23.66,0,0,1,123.9,208.65Zm39.1-.23a15.34,15.34,0,1,0-15.14,15.38A15.41,15.41,0,0,0,163,208.42Z"/></g></g></svg>