<svg xmlns="http://www.w3.org/2000/svg" xmlns:xlink="http://www.w3.org/1999/xlink" viewBox="0 0 39.67 15.13"><defs><style>.cls-1{fill:url(#ÕÓ_È_Ó·_ÁÂ_ËÂÌÚ_10);}.cls-2{fill:url(#ÕÓ_È_Ó·_ÁÂ_ËÂÌÚ_10-2);}.cls-3{fill:url(#ÕÓ_È_Ó·_ÁÂ_ËÂÌÚ_10-3);}.cls-4{fill:url(#ÕÓ_È_Ó·_ÁÂ_ËÂÌÚ_10-4);}.cls-5{fill:url(#ÕÓ_È_Ó·_ÁÂ_ËÂÌÚ_10-5);}.cls-6{fill:url(#ÕÓ_È_Ó·_ÁÂ_ËÂÌÚ_10-6);}.cls-7{fill:url(#ÕÓ_È_Ó·_ÁÂ_ËÂÌÚ_10-7);}.cls-8{fill:url(#ÕÓ_È_Ó·_ÁÂ_ËÂÌÚ_10-8);}.cls-9{fill:url(#ÕÓ_È_Ó·_ÁÂ_ËÂÌÚ_10-9);}.cls-10{fill:url(#ÕÓ_È_Ó·_ÁÂ_ËÂÌÚ_10-10);}.cls-11{fill:url(#ÕÓ_È_Ó·_ÁÂ_ËÂÌÚ_10-11);}.cls-12{fill:url(#ÕÓ_È_Ó·_ÁÂ_ËÂÌÚ_10-12);}.cls-13{fill:url(#ÕÓ_È_Ó·_ÁÂ_ËÂÌÚ_10-13);}.cls-14{fill:url(#ÕÓ_È_Ó·_ÁÂ_ËÂÌÚ_10-14);}.cls-15{fill:url(#ÕÓ_È_Ó·_ÁÂ_ËÂÌÚ_10-15);}.cls-16{fill:url(#ÕÓ_È_Ó·_ÁÂ_ËÂÌÚ_10-16);}.cls-17{fill:url(#ÕÓ_È_Ó·_ÁÂ_ËÂÌÚ_10-17);}.cls-18{fill:url(#ÕÓ_È_Ó·_ÁÂ_ËÂÌÚ_10-18);}.cls-19{fill:url(#ÕÓ_È_Ó·_ÁÂ_ËÂÌÚ_10-19);}.cls-20{fill:url(#ÕÓ_È_Ó·_ÁÂ_ËÂÌÚ_10-20);}.cls-21{fill:url(#ÕÓ_È_Ó·_ÁÂ_ËÂÌÚ_10-21);}.cls-22{fill:url(#ÕÓ_È_Ó·_ÁÂ_ËÂÌÚ_10-22);}.cls-23{fill:url(#ÕÓ_È_Ó·_ÁÂ_ËÂÌÚ_10-23);}.cls-24{fill:url(#ÕÓ_È_Ó·_ÁÂ_ËÂÌÚ_10-24);}.cls-25{fill:url(#ÕÓ_È_Ó·_ÁÂ_ËÂÌÚ_10-25);}.cls-26{fill:url(#ÕÓ_È_Ó·_ÁÂ_ËÂÌÚ_10-26);}.cls-27{fill:url(#ÕÓ_È_Ó·_ÁÂ_ËÂÌÚ_10-27);}.cls-28{fill:url(#ÕÓ_È_Ó·_ÁÂ_ËÂÌÚ_10-28);}.cls-29{fill:url(#ÕÓ_È_Ó·_ÁÂ_ËÂÌÚ_10-29);}.cls-30{fill:url(#ÕÓ_È_Ó·_ÁÂ_ËÂÌÚ_10-30);}.cls-31{fill:url(#ÕÓ_È_Ó·_ÁÂ_ËÂÌÚ_10-31);}.cls-32{fill:url(#ÕÓ_È_Ó·_ÁÂ_ËÂÌÚ_10-32);}.cls-33{fill:url(#ÕÓ_È_Ó·_ÁÂ_ËÂÌÚ_10-33);}.cls-34{fill:url(#ÕÓ_È_Ó·_ÁÂ_ËÂÌÚ_10-34);}.cls-35{fill:url(#ÕÓ_È_Ó·_ÁÂ_ËÂÌÚ_10-35);}</style><linearGradient id="ÕÓ_È_Ó·_ÁÂ_ËÂÌÚ_10" x1="0.29" y1="0.74" x2="0.29" y2="16.26" gradientUnits="userSpaceOnUse"><stop offset="0.01" stop-color="#ffc816"/><stop offset="0.07" stop-color="#fbcf32"/><stop offset="0.23" stop-color="#f2e079"/><stop offset="0.31" stop-color="#eee795"/><stop offset="0.41" stop-color="#e7d377"/><stop offset="0.63" stop-color="#d5a12b"/><stop offset="0.69" stop-color="#d09317"/><stop offset="1" stop-color="#f2d473"/><stop offset="1" stop-color="#f3d574"/></linearGradient><linearGradient id="ÕÓ_È_Ó·_ÁÂ_ËÂÌÚ_10-2" x1="2.59" y1="0.74" x2="2.59" y2="16.26" xlink:href="#ÕÓ_È_Ó·_ÁÂ_ËÂÌÚ_10"/><linearGradient id="ÕÓ_È_Ó·_ÁÂ_ËÂÌÚ_10-3" x1="3.75" y1="0.74" x2="3.75" y2="16.26" xlink:href="#ÕÓ_È_Ó·_ÁÂ_ËÂÌÚ_10"/><linearGradient id="ÕÓ_È_Ó·_ÁÂ_ËÂÌÚ_10-4" x1="6.05" y1="0.74" x2="6.05" y2="16.26" xlink:href="#ÕÓ_È_Ó·_ÁÂ_ËÂÌÚ_10"/><linearGradient id="ÕÓ_È_Ó·_ÁÂ_ËÂÌÚ_10-5" x1="4.9" y1="0.74" x2="4.9" y2="16.26" xlink:href="#ÕÓ_È_Ó·_ÁÂ_ËÂÌÚ_10"/><linearGradient id="ÕÓ_È_Ó·_ÁÂ_ËÂÌÚ_10-6" x1="9.51" y1="0.74" x2="9.51" y2="16.26" xlink:href="#ÕÓ_È_Ó·_ÁÂ_ËÂÌÚ_10"/><linearGradient id="ÕÓ_È_Ó·_ÁÂ_ËÂÌÚ_10-7" x1="1.44" y1="0.74" x2="1.44" y2="16.26" xlink:href="#ÕÓ_È_Ó·_ÁÂ_ËÂÌÚ_10"/><linearGradient id="ÕÓ_È_Ó·_ÁÂ_ËÂÌÚ_10-8" x1="10.67" y1="0.74" x2="10.67" y2="16.26" xlink:href="#ÕÓ_È_Ó·_ÁÂ_ËÂÌÚ_10"/><linearGradient id="ÕÓ_È_Ó·_ÁÂ_ËÂÌÚ_10-9" x1="7.21" y1="0.74" x2="7.21" y2="16.26" xlink:href="#ÕÓ_È_Ó·_ÁÂ_ËÂÌÚ_10"/><linearGradient id="ÕÓ_È_Ó·_ÁÂ_ËÂÌÚ_10-10" x1="11.82" y1="0.74" x2="11.82" y2="16.26" xlink:href="#ÕÓ_È_Ó·_ÁÂ_ËÂÌÚ_10"/><linearGradient id="ÕÓ_È_Ó·_ÁÂ_ËÂÌÚ_10-11" x1="12.97" y1="0.74" x2="12.97" y2="16.26" xlink:href="#ÕÓ_È_Ó·_ÁÂ_ËÂÌÚ_10"/><linearGradient id="ÕÓ_È_Ó·_ÁÂ_ËÂÌÚ_10-12" x1="14.13" y1="0.74" x2="14.13" y2="16.26" xlink:href="#ÕÓ_È_Ó·_ÁÂ_ËÂÌÚ_10"/><linearGradient id="ÕÓ_È_Ó·_ÁÂ_ËÂÌÚ_10-13" x1="15.28" y1="0.74" x2="15.28" y2="16.26" xlink:href="#ÕÓ_È_Ó·_ÁÂ_ËÂÌÚ_10"/><linearGradient id="ÕÓ_È_Ó·_ÁÂ_ËÂÌÚ_10-14" x1="16.43" y1="0.74" x2="16.43" y2="16.26" xlink:href="#ÕÓ_È_Ó·_ÁÂ_ËÂÌÚ_10"/><linearGradient id="ÕÓ_È_Ó·_ÁÂ_ËÂÌÚ_10-15" x1="17.59" y1="0.74" x2="17.59" y2="16.26" xlink:href="#ÕÓ_È_Ó·_ÁÂ_ËÂÌÚ_10"/><linearGradient id="ÕÓ_È_Ó·_ÁÂ_ËÂÌÚ_10-16" x1="18.74" y1="0.74" x2="18.74" y2="16.26" xlink:href="#ÕÓ_È_Ó·_ÁÂ_ËÂÌÚ_10"/><linearGradient id="ÕÓ_È_Ó·_ÁÂ_ËÂÌÚ_10-17" x1="21.05" y1="0.74" x2="21.05" y2="16.26" xlink:href="#ÕÓ_È_Ó·_ÁÂ_ËÂÌÚ_10"/><linearGradient id="ÕÓ_È_Ó·_ÁÂ_ËÂÌÚ_10-18" x1="22.2" y1="0.74" x2="22.2" y2="16.26" xlink:href="#ÕÓ_È_Ó·_ÁÂ_ËÂÌÚ_10"/><linearGradient id="ÕÓ_È_Ó·_ÁÂ_ËÂÌÚ_10-19" x1="19.89" y1="0.74" x2="19.89" y2="16.26" xlink:href="#ÕÓ_È_Ó·_ÁÂ_ËÂÌÚ_10"/><linearGradient id="ÕÓ_È_Ó·_ÁÂ_ËÂÌÚ_10-20" x1="8.36" y1="0.74" x2="8.36" y2="16.26" xlink:href="#ÕÓ_È_Ó·_ÁÂ_ËÂÌÚ_10"/><linearGradient id="ÕÓ_È_Ó·_ÁÂ_ËÂÌÚ_10-21" x1="23.35" y1="0.74" x2="23.35" y2="16.26" xlink:href="#ÕÓ_È_Ó·_ÁÂ_ËÂÌÚ_10"/><linearGradient id="ÕÓ_È_Ó·_ÁÂ_ËÂÌÚ_10-22" x1="24.51" y1="0.74" x2="24.51" y2="16.26" xlink:href="#ÕÓ_È_Ó·_ÁÂ_ËÂÌÚ_10"/><linearGradient id="ÕÓ_È_Ó·_ÁÂ_ËÂÌÚ_10-23" x1="27.97" y1="0.74" x2="27.97" y2="16.26" xlink:href="#ÕÓ_È_Ó·_ÁÂ_ËÂÌÚ_10"/><linearGradient id="ÕÓ_È_Ó·_ÁÂ_ËÂÌÚ_10-24" x1="25.66" y1="-2.08" x2="25.66" y2="13.45" xlink:href="#ÕÓ_È_Ó·_ÁÂ_ËÂÌÚ_10"/><linearGradient id="ÕÓ_È_Ó·_ÁÂ_ËÂÌÚ_10-25" x1="26.81" y1="-2.08" x2="26.81" y2="13.45" xlink:href="#ÕÓ_È_Ó·_ÁÂ_ËÂÌÚ_10"/><linearGradient id="ÕÓ_È_Ó·_ÁÂ_ËÂÌÚ_10-26" x1="29.1" y1="-3.02" x2="29.1" y2="12.51" xlink:href="#ÕÓ_È_Ó·_ÁÂ_ËÂÌÚ_10"/><linearGradient id="ÕÓ_È_Ó·_ÁÂ_ËÂÌÚ_10-27" x1="30.16" y1="0.74" x2="30.16" y2="16.26" xlink:href="#ÕÓ_È_Ó·_ÁÂ_ËÂÌÚ_10"/><linearGradient id="ÕÓ_È_Ó·_ÁÂ_ËÂÌÚ_10-28" x1="32.47" y1="0.74" x2="32.47" y2="16.26" xlink:href="#ÕÓ_È_Ó·_ÁÂ_ËÂÌÚ_10"/><linearGradient id="ÕÓ_È_Ó·_ÁÂ_ËÂÌÚ_10-29" x1="33.62" y1="0.74" x2="33.62" y2="16.26" xlink:href="#ÕÓ_È_Ó·_ÁÂ_ËÂÌÚ_10"/><linearGradient id="ÕÓ_È_Ó·_ÁÂ_ËÂÌÚ_10-30" x1="35.93" y1="0.74" x2="35.93" y2="16.26" xlink:href="#ÕÓ_È_Ó·_ÁÂ_ËÂÌÚ_10"/><linearGradient id="ÕÓ_È_Ó·_ÁÂ_ËÂÌÚ_10-31" x1="34.77" y1="0.74" x2="34.77" y2="16.26" xlink:href="#ÕÓ_È_Ó·_ÁÂ_ËÂÌÚ_10"/><linearGradient id="ÕÓ_È_Ó·_ÁÂ_ËÂÌÚ_10-32" x1="39.39" y1="0.74" x2="39.39" y2="16.26" xlink:href="#ÕÓ_È_Ó·_ÁÂ_ËÂÌÚ_10"/><linearGradient id="ÕÓ_È_Ó·_ÁÂ_ËÂÌÚ_10-33" x1="31.31" y1="0.74" x2="31.31" y2="16.26" xlink:href="#ÕÓ_È_Ó·_ÁÂ_ËÂÌÚ_10"/><linearGradient id="ÕÓ_È_Ó·_ÁÂ_ËÂÌÚ_10-34" x1="37.08" y1="0.74" x2="37.08" y2="16.26" xlink:href="#ÕÓ_È_Ó·_ÁÂ_ËÂÌÚ_10"/><linearGradient id="ÕÓ_È_Ó·_ÁÂ_ËÂÌÚ_10-35" x1="38.23" y1="2.65" x2="38.23" y2="18.17" xlink:href="#ÕÓ_È_Ó·_ÁÂ_ËÂÌÚ_10"/></defs><g id="Camada_2" data-name="Camada 2"><g id="Banner_01__x28_ÍÓÔË_27_x29_" data-name="Banner_01__x28_ÍÓÔËˇ27_x29_"><g id="Chip"><path class="cls-1" d="M.33,12.85V7.29H.23v5.56a.3.3,0,0,0-.23.29.29.29,0,0,0,.29.28.28.28,0,0,0,.28-.28A.29.29,0,0,0,.33,12.85Zm0,.1a.18.18,0,0,1,.18.19.18.18,0,0,1-.18.18.19.19,0,1,1,0-.37Z"/><path class="cls-2" d="M2.64,11.75V6h-.1v5.79a.28.28,0,0,0-.23.28.29.29,0,1,0,.57,0A.28.28,0,0,0,2.64,11.75Zm-.05.09a.19.19,0,0,1,.19.19.18.18,0,0,1-.19.18A.18.18,0,0,1,2.41,12,.19.19,0,0,1,2.59,11.84Z"/><path class="cls-3" d="M3.79,9.61V5.94H3.68c0,1.22,0,2.45,0,3.67a.3.3,0,0,0-.23.29.29.29,0,0,0,.29.28A.28.28,0,0,0,4,9.9.29.29,0,0,0,3.79,9.61Zm0,.1a.18.18,0,0,1,.18.19.18.18,0,0,1-.18.18.19.19,0,1,1,0-.37Z"/><path class="cls-4" d="M6.1,9.61c0-1.22,0-2.45,0-3.67H6C6,7.16,6,8.39,6,9.61a.3.3,0,0,0-.23.29.29.29,0,0,0,.57,0A.29.29,0,0,0,6.1,9.61Zm0,.1a.18.18,0,0,1,.19.19.18.18,0,0,1-.19.18.18.18,0,0,1-.18-.18A.18.18,0,0,1,6.05,9.71Z"/><path class="cls-5" d="M5,14.56V5.91H4.84v8.65a.3.3,0,1,0,.11,0Zm0,.1a.18.18,0,0,1,.18.18.18.18,0,1,1-.36,0A.18.18,0,0,1,4.9,14.66Z"/><path class="cls-6" d="M9.45,5.92c0,1.86,0,3.72,0,5.58a.29.29,0,0,0-.23.28.28.28,0,0,0,.28.29.29.29,0,0,0,.29-.29.28.28,0,0,0-.24-.28c0-1.86,0-3.72,0-5.58Zm.06,5.68a.19.19,0,0,1,.19.18.2.2,0,0,1-.19.19.19.19,0,0,1-.18-.19A.18.18,0,0,1,9.51,11.6Z"/><path class="cls-7" d="M1.49,10.36c0-1.47,0-2.93,0-4.4h-.1v4.4a.3.3,0,1,0,.11,0Zm-.05.1a.18.18,0,0,1,.18.18.19.19,0,0,1-.18.19.19.19,0,0,1-.18-.19A.18.18,0,0,1,1.44,10.46Z"/><path class="cls-8" d="M10.71,10.36V6H10.6c0,1.47,0,2.93,0,4.4a.29.29,0,1,0,.34.28A.28.28,0,0,0,10.71,10.36Zm0,.1a.18.18,0,0,1,.18.18.19.19,0,1,1-.37,0A.18.18,0,0,1,10.67,10.46Z"/><path class="cls-9" d="M7.25,10.36V6.12H7.14c0,1.41,0,2.83,0,4.24a.29.29,0,1,0,.34.28A.28.28,0,0,0,7.25,10.36Zm0,.1a.18.18,0,0,1,.18.18.19.19,0,1,1-.37,0A.18.18,0,0,1,7.21,10.46Z"/><path class="cls-10" d="M11.87,11.65c0-2.89,0-5.84,0-8.77h-.1v8.77a.3.3,0,0,0-.23.29.29.29,0,0,0,.58,0A.3.3,0,0,0,11.87,11.65Zm0,.1a.18.18,0,0,1,.18.19.18.18,0,0,1-.36,0A.18.18,0,0,1,11.82,11.75Z"/><path class="cls-11" d="M12.69,13.34a.28.28,0,0,0,.28.29.29.29,0,0,0,.29-.29.28.28,0,0,0-.24-.28V5.93h-.1v7.13A.29.29,0,0,0,12.69,13.34Zm.1,0a.18.18,0,0,1,.18-.18.19.19,0,0,1,.19.18.2.2,0,0,1-.19.19A.19.19,0,0,1,12.79,13.34Z"/><path class="cls-12" d="M14.06,5.91v.61c0,2.17,0,4.36,0,6.54a.29.29,0,1,0,.34.28.28.28,0,0,0-.24-.28V5.91Zm.07,7.25a.18.18,0,0,1,.18.18.19.19,0,1,1-.37,0A.18.18,0,0,1,14.13,13.16Z"/><path class="cls-13" d="M15.57,11.62a.29.29,0,0,0-.24-.28V6h-.11v5.39a.28.28,0,0,0-.23.28.29.29,0,1,0,.58,0Zm-.11,0a.18.18,0,1,1-.36,0,.18.18,0,1,1,.36,0Z"/><path class="cls-14" d="M16.48,9.29c0-1.12,0-2.24,0-3.36h-.1c0,1.12,0,2.24,0,3.36a.27.27,0,0,0-.23.28.28.28,0,0,0,.28.29.29.29,0,0,0,.29-.29A.28.28,0,0,0,16.48,9.29Zm-.05.09a.2.2,0,0,1,.19.19.19.19,0,0,1-.19.18.18.18,0,0,1-.18-.18A.19.19,0,0,1,16.43,9.38Z"/><path class="cls-15" d="M17.63,13.18V6h-.1v7.21a.29.29,0,1,0,.34.28A.28.28,0,0,0,17.63,13.18Zm0,.1a.18.18,0,0,1,.18.18.19.19,0,1,1-.37,0A.18.18,0,0,1,17.59,13.28Z"/><path class="cls-16" d="M18.78,0h-.1c0,3.51,0,7,0,10.61a.3.3,0,0,0-.23.29.29.29,0,0,0,.58,0,.3.3,0,0,0-.24-.29C18.83,7,18.82,3.51,18.78,0Zm0,10.71a.18.18,0,0,1,.18.19.18.18,0,0,1-.18.18.19.19,0,1,1,0-.37Z"/><path class="cls-17" d="M21,6c0,1.57,0,3.14,0,4.71a.29.29,0,1,0,.34.28.28.28,0,0,0-.24-.28V6Zm.07,4.81a.18.18,0,0,1,.18.18.19.19,0,1,1-.37,0A.18.18,0,0,1,21.05,10.78Z"/><path class="cls-18" d="M21.91,9a.29.29,0,1,0,.34-.28V6.09h-.11V8.67A.29.29,0,0,0,21.91,9ZM22,9a.19.19,0,0,1,.19-.18.18.18,0,0,1,.18.18.19.19,0,0,1-.18.19A.2.2,0,0,1,22,9Z"/><path class="cls-19" d="M19.94,9.23V6.66h-.1V9.23a.29.29,0,0,0-.23.28.28.28,0,0,0,.28.29.29.29,0,0,0,.05-.57Zm-.05.1a.19.19,0,1,1,0,.37.18.18,0,0,1-.18-.19A.18.18,0,0,1,19.89,9.33Z"/><path class="cls-20" d="M8.41,8.11V5.53H8.3V8.11a.28.28,0,0,0-.23.28.29.29,0,1,0,.34-.28Zm-.05.09a.19.19,0,0,1,.18.19.18.18,0,0,1-.36,0A.19.19,0,0,1,8.36,8.2Z"/><path class="cls-21" d="M23.29,6q0,4.24,0,8.49a.29.29,0,0,0-.23.28.28.28,0,0,0,.28.29.29.29,0,0,0,0-.57q0-4.25,0-8.49Zm.06,8.59a.19.19,0,1,1,0,.37.18.18,0,0,1-.18-.19A.18.18,0,0,1,23.35,14.55Z"/><path class="cls-22" d="M24.45,6v8.49a.3.3,0,0,0-.23.28.29.29,0,1,0,.57,0,.28.28,0,0,0-.24-.28V6Zm.06,8.59a.18.18,0,0,1,.18.18.18.18,0,0,1-.18.19.18.18,0,0,1-.19-.19A.18.18,0,0,1,24.51,14.55Z"/><path class="cls-23" d="M28,14.17a.29.29,0,0,0,.28-.29A.28.28,0,0,0,28,13.6c0-4,0-7.58,0-11H27.9c0,3.44,0,7.05,0,11a.29.29,0,0,0,.06.57Zm0-.1a.19.19,0,0,1-.19-.19A.18.18,0,0,1,28,13.7a.18.18,0,0,1,.18.18A.19.19,0,0,1,28,14.07Z"/><path class="cls-24" d="M25.37,10.07a.29.29,0,1,0,.33-.28c0-1.14,0-4.35,0-5.4H25.6v5.4A.29.29,0,0,0,25.37,10.07Zm.1,0a.19.19,0,0,1,.19-.18.18.18,0,0,1,.18.18.19.19,0,0,1-.18.19A.2.2,0,0,1,25.47,10.07Z"/><path class="cls-25" d="M26.76,11a.27.27,0,0,0-.23.28.28.28,0,0,0,.28.29.29.29,0,0,0,.05-.57V1.43h-.1Zm0,.09a.2.2,0,0,1,.19.19.19.19,0,0,1-.19.18.18.18,0,0,1-.18-.18A.19.19,0,0,1,26.81,11.06Z"/><path class="cls-26" d="M29.14,10.6V2.94H29V10.6a.28.28,0,0,0-.23.28.29.29,0,1,0,.57,0A.28.28,0,0,0,29.14,10.6Zm0,.09a.19.19,0,0,1,.18.19.18.18,0,0,1-.18.18.18.18,0,0,1-.19-.18A.19.19,0,0,1,29.1,10.69Z"/><path class="cls-27" d="M30.21,11.9V6.34h-.1V11.9a.3.3,0,1,0,.11,0Zm-.05.1a.19.19,0,0,1,.19.18.2.2,0,0,1-.19.19.19.19,0,0,1-.18-.19A.18.18,0,0,1,30.16,12Z"/><path class="cls-28" d="M32.51,10.79V5h-.1v5.78a.3.3,0,1,0,.1,0Zm0,.1a.18.18,0,0,1,.18.18.19.19,0,0,1-.18.19.2.2,0,0,1-.19-.19A.19.19,0,0,1,32.47,10.89Z"/><path class="cls-29" d="M33.67,8.66c0-1.23,0-2.45,0-3.68h-.1V8.66a.3.3,0,1,0,.11,0Zm-.05.1a.19.19,0,0,1,.19.18.2.2,0,0,1-.19.19.19.19,0,0,1-.18-.19A.18.18,0,0,1,33.62,8.76Z"/><path class="cls-30" d="M36,8.66V5h-.11c0,1.23,0,2.45,0,3.68a.29.29,0,0,0,.06.57.29.29,0,0,0,0-.57Zm0,.1a.18.18,0,0,1,.18.18.19.19,0,0,1-.18.19.2.2,0,0,1-.19-.19A.19.19,0,0,1,35.93,8.76Z"/><path class="cls-31" d="M34.82,13.6V5h-.1V13.6a.3.3,0,0,0-.23.29.29.29,0,0,0,.57,0A.29.29,0,0,0,34.82,13.6Zm0,.1a.18.18,0,0,1,.19.19.18.18,0,0,1-.19.18.18.18,0,0,1-.18-.18A.18.18,0,0,1,34.77,13.7Z"/><path class="cls-32" d="M39.32,5c0,1.86,0,3.72,0,5.58a.28.28,0,0,0,.06.56.27.27,0,0,0,.28-.28.29.29,0,0,0-.24-.29V5Zm.07,5.67a.19.19,0,0,1,.18.19.18.18,0,0,1-.18.18.19.19,0,0,1-.19-.18A.2.2,0,0,1,39.39,10.64Z"/><path class="cls-33" d="M31.36,9.4c0-1.46,0-2.93,0-4.39h-.1c0,1.46,0,2.93,0,4.4a.28.28,0,1,0,.34.28A.29.29,0,0,0,31.36,9.4Zm-.05.1a.19.19,0,0,1,.19.19.18.18,0,0,1-.19.18.18.18,0,0,1-.18-.18A.19.19,0,0,1,31.31,9.5Z"/><path class="cls-34" d="M37.13,9.4c0-1.41,0-2.82,0-4.24H37V9.41a.28.28,0,1,0,.35.28A.3.3,0,0,0,37.13,9.4Zm-.05.1a.2.2,0,0,1,.19.19.19.19,0,0,1-.19.18.18.18,0,0,1-.18-.18A.19.19,0,0,1,37.08,9.5Z"/><path class="cls-35" d="M38.28,9.06V6.49h-.1V9.06a.3.3,0,0,0-.23.28.29.29,0,1,0,.57,0A.28.28,0,0,0,38.28,9.06Zm-.05.1a.18.18,0,0,1,.19.18.18.18,0,0,1-.19.19.18.18,0,0,1-.18-.19A.18.18,0,0,1,38.23,9.16Z"/></g></g></g></svg>