<svg xmlns="http://www.w3.org/2000/svg" viewBox="0 0 485 485.52"><defs><style>.cls-1{fill:#fff;}</style></defs><g id="Camada_2" data-name="Camada 2"><g id="Слой_1" data-name="Слой 1"><path class="cls-1" d="M158.24,357.06c-1.76-6.39-3.23-11.45-4.56-16.55q-22.6-86.82-45.13-173.66a8.68,8.68,0,0,0-5.37-6.51c-10.85-4.71-21.67-9.52-32.29-14.71-4.32-2.11-6-.79-8,3.05-12.23,24.21-20,49.65-22.14,76.79-4.18,51.91,9.14,98.89,40.6,140.22,34.24,45,80,71.67,136.05,78.55,59.61,7.31,113-8.67,158.6-48.25,40.53-35.21,63.57-79.92,68.79-133.42,5.24-53.7-8.95-102.17-41.95-144.68-31.06-40-72-65.15-121.78-74.47-54.9-10.28-106,.44-152.52,31.63-5.67,3.8-11.11,8-18.17,9-8.19,1.23-15.09-1-19.59-8s-3.23-14,1-20.73a31.86,31.86,0,0,1,8.13-8.73C132,22.79,168,8.3,207.47,2.58A240.44,240.44,0,0,1,309.36,9.42a237.8,237.8,0,0,1,90,48.3q57.5,49.23,77.56,122.16c7.63,27.94,9.51,56.38,7.07,85.19-3.36,39.67-16.16,76.08-37.67,109.46a239.79,239.79,0,0,1-84.56,79.78A235.89,235.89,0,0,1,259.24,485c-65.47,4.15-123.6-14.86-173.48-57.13C39.05,388.25,11.23,337.58,2.52,276.78c-7-48.89.67-95.57,21.89-140.07a199.28,199.28,0,0,1,16-27.68C47,99.51,55.6,97.16,66,102.36c17.73,8.87,35.07,18.6,53.16,26.66,14.45,6.44,22.63,16.14,25.21,31.87,2.23,13.6,6.55,26.85,9.51,40.35,1,4.68,3.16,6.73,7.84,7.2,19.38,2,38.73,4.13,58.09,6.3,25.14,2.83,50.28,5.74,75.42,8.59q28.27,3.21,56.57,6.35a28.25,28.25,0,0,1,13.87,5.12c7.06,5.12,8.44,12.32,6.77,20q-6.63,30.77-14,61.38c-2.54,10.52-9.46,15.51-20.95,15.59-22.17.14-44.33.06-66.5.08-24.83,0-49.67.25-74.49,0-16.3-.2-27.37,7.72-35.56,20.92ZM253,295.71v.06c22.65,0,45.3-.08,68,.06,4,0,6-1.2,6.92-5.28,1.67-7.81,3.65-15.56,5.83-23.25,1.12-4,.1-5.14-4-5.52-27.82-2.57-55.62-5.38-83.42-8.18-24.66-2.48-49.31-5.08-74-7.55-4.95-.5-5.61.34-4.26,5.25,3.6,13,7.45,25.93,10.83,39,1.08,4.15,2.95,5.56,7.21,5.52C208.39,295.62,230.7,295.71,253,295.71Z"/><path class="cls-1" d="M178.93,117.67c4.5,0,9,0,13.49,0,7.81.08,11.57,3.09,13.23,10.82q7.17,33.44,14.21,66.92c2,9.47,1.92,9.36-7.85,8.15-11.23-1.4-22.47-2.71-33.73-3.76-5.15-.48-7.7-2.39-8.77-7.89-4.06-20.91-8.75-41.7-13.14-62.56-1.85-8.81.53-11.65,9.57-11.69C170.27,117.65,174.6,117.67,178.93,117.67Z"/><path class="cls-1" d="M248.31,144.8c4.82,0,9.65-.12,14.48,0,6.43.2,10.45,3.15,11.85,9.41,3.95,17.7,7.58,35.47,11.43,53.19.77,3.56-.46,4.41-3.88,4-13.7-1.66-27.42-3.16-41.14-4.62-3-.32-4.87-1.5-5.52-4.66-3.33-16-6.87-31.89-10.1-47.87-1.14-5.63,1.7-9.11,7.4-9.39,5.15-.27,10.32-.06,15.48-.06Z"/><path class="cls-1" d="M316.68,174.74c4.83,0,9.66-.08,14.48,0,6.29.13,10.53,3.25,12,9.26,2.38,10,4.44,20.16,6.7,30.22.82,3.62-.28,4.79-4.07,4.32q-20.53-2.55-41.14-4.67c-3.14-.32-4.85-1.58-5.47-4.66-1.68-8.32-3.62-16.59-5.16-24.94-1.11-6,1.63-9.3,7.72-9.5C306.68,174.62,311.68,174.75,316.68,174.74Z"/><path class="cls-1" d="M217,369.88a23.76,23.76,0,0,1-23.6,23.94c-13.29.09-23.86-10.65-23.86-24.26a23.66,23.66,0,0,1,23.67-23.88C206.7,345.64,217.09,356.21,217,369.88Z"/><path class="cls-1" d="M344,369.51c.06,13.62-10.47,24.35-23.78,24.24a24,24,0,0,1,.07-48A23.56,23.56,0,0,1,344,369.51Z"/><path class="cls-1" d="M257.14,347.57c9.66,0,19.33.06,29,0,3.43,0,4.17.91,2.36,4a32.31,32.31,0,0,0-4.7,18.62c.23,3.53-1.5,4.68-4.8,4.66q-22.25-.09-44.49,0c-3.43,0-4.86-1.37-4.68-4.78a32.08,32.08,0,0,0-4.41-18.2c-2-3.47-.68-4.37,2.74-4.35,9.66.05,19.33,0,29,0Z"/></g></g></svg>