<svg xmlns="http://www.w3.org/2000/svg" viewBox="0 0 216.29 216.29"><g id="Camada_2" data-name="Camada 2"><g id="Camada_1-2" data-name="Camada 1"><g id="P4tgbK.tif"><path d="M0,116.37V100.45a32.23,32.23,0,0,0,.87-3.84C7.52,35.73,63.16-7.6,123.53,1.12A108,108,0,0,1,215.2,123.61c-6.83,48.77-47.12,87.57-95.73,92.18-50.67,4.8-97.53-25.34-113.59-72.87C3,134.24,1.88,125.24,0,116.37ZM84.19,31.85c.68,2.25.9,3,1.15,3.78,10.27,32,20.61,64,30.72,96,1.15,3.65,2.47,4.4,6.17,3.56,22.29-5,44.64-9.81,67-14.65,5-1.08,5-.83,4.05,4.12-.56,3.08-2.81,3-4.74,3.38-9.86,2.19-19.72,4.43-29.65,6.24-4.46.82-5.2,2.33-3.54,6.52,3.65,9.23,6.54,18.77,10.23,28,1.72,4.27-1.18,5.78-3.57,6.79-3.06,1.28-2.38-2.32-2.91-3.73-3.79-10.07-7.51-20.17-10.87-30.39-1.22-3.69-2.77-4.33-6.44-3.38-8.16,2.1-16.56,3.36-24.7,5.55-3.82,1-4.79-.24-5.77-3.5-3-10-6.5-19.82-9.48-29.81-.93-3.13-2.11-3.76-5.2-2.94-12.65,3.32-25.36,6.38-38,9.55l-32.11,8L140,188.5a79.33,79.33,0,0,1-43.14,5.18c-34.27-5.37-57.65-24.84-70.25-57.19-.59-1.51-.9-3.18-2.58-4.08-4.19-2.25-8.33-4.58-12.73-7C16.6,162,47.15,200.78,97.2,206.56c43.88,5.07,84.81-18.8,102.3-59.92C217.19,105,204,57.05,168.34,29.4,136.48,4.73,93.47,6.09,73.78,16.56c3.43,1.94,6.81,3.69,10,5.7a10.13,10.13,0,0,0,7.57,1.25c35.37-5.83,64.26,5.4,86.34,33.56,7.93,10.1,12.83,21.79,15.57,35.28Zm-9.8-4.78c-3.66,4.78-49.3,87.18-50.35,91.09,23.4-5.83,46.59-11.73,69.86-17.31,3.87-.93,4.15-2.22,3-5.66-7-21.37-13.75-42.81-20.66-64.2C75.82,29.64,75.89,28,74.39,27.07Zm-63,97.28c2.59-4.57,4.88-8.74,7.3-12.83a26.37,26.37,0,0,0,3.56-11.14c2.65-25.77,14.46-46.48,35.19-62.1,7-5.27,8.9-13.73,13.9-21.5C26.4,34.69,2.67,83.06,11.37,124.35Z"/></g></g></g></svg>