<svg xmlns="http://www.w3.org/2000/svg" viewBox="0 0 485.45 217.05"><defs><style>.cls-1{isolation:isolate;}.cls-2{mix-blend-mode:color-dodge;}.cls-3{fill:#dedede;}</style></defs><g class="cls-1"><g id="Camada_2" data-name="Camada 2"><g id="Layer_1" data-name="Layer 1"><g class="cls-2"><polygon class="cls-3" points="198.88 52.95 147.51 52.95 125.85 31.3 87.67 31.3 57.72 1.34 57.95 1.11 87.81 30.96 125.99 30.96 147.65 52.62 198.88 52.62 198.88 52.95"/><path class="cls-3" d="M198.82,51.51a1.28,1.28,0,1,1-1.27,1.27A1.27,1.27,0,0,1,198.82,51.51Z"/><path class="cls-3" d="M58.78.37a1.29,1.29,0,0,0-1.8,0,1.29,1.29,0,0,0,0,1.8,1.27,1.27,0,0,0,1.8-1.8Z"/></g><g class="cls-2"><polygon class="cls-3" points="40.16 215.95 5.47 215.95 5.47 215.61 40.02 215.61 59.13 196.5 97.31 196.5 118.97 174.84 171.48 174.84 190.82 155.5 191.06 155.74 171.62 175.18 119.11 175.18 97.45 196.84 59.27 196.84 40.16 215.95"/><path class="cls-3" d="M190,154.77a1.27,1.27,0,0,1,1.8,1.8,1.27,1.27,0,1,1-1.8-1.8Z"/><circle class="cls-3" cx="5.53" cy="215.78" r="1.27"/></g><g class="cls-2"><polygon class="cls-3" points="214.61 78.31 197.12 60.81 136.98 60.81 118.99 42.83 94.83 42.83 85.15 52.51 11.95 52.51 11.95 52.17 85.01 52.17 94.69 42.49 119.13 42.49 137.12 60.48 197.25 60.48 214.85 78.07 214.61 78.31"/><circle class="cls-3" cx="214.68" cy="78.14" r="1.27"/><circle class="cls-3" cx="12.01" cy="52.34" r="1.27"/></g><g class="cls-2"><polygon class="cls-3" points="166.75 170.5 146.43 170.5 131.4 155.47 101.95 155.47 87.29 140.81 43.36 140.81 43.36 140.47 87.43 140.47 102.09 155.13 131.53 155.13 146.57 170.16 166.61 170.16 187.26 149.51 187.5 149.75 166.75 170.5"/><path class="cls-3" d="M186.44,148.77a1.27,1.27,0,0,1,1.8,1.8,1.27,1.27,0,1,1-1.8-1.8Z"/><circle class="cls-3" cx="43.43" cy="140.64" r="1.27"/></g><g class="cls-2"><polygon class="cls-3" points="212.41 86.53 195.33 69.45 138.08 69.45 118.92 50.3 101.42 50.3 87.39 64.34 32.27 64.34 32.27 64 87.25 64 101.28 49.96 119.06 49.96 138.22 69.11 195.47 69.11 212.65 86.29 212.41 86.53"/><path class="cls-3" d="M32.33,65.44a1.27,1.27,0,1,1,1.27-1.27A1.27,1.27,0,0,1,32.33,65.44Z"/><path class="cls-3" d="M211.59,87.27a1.27,1.27,0,1,0,1.8-1.8,1.27,1.27,0,0,0-1.8,1.8Z"/></g><g class="cls-2"><polygon class="cls-3" points="164.17 153.75 139.29 153.75 110.47 124.92 51.01 124.92 36.67 139.26 36.43 139.03 50.87 124.59 110.61 124.59 139.43 153.41 164.03 153.41 178.17 139.27 203.67 139.27 203.67 139.61 178.31 139.61 164.17 153.75"/><path class="cls-3" d="M203.6,138.17a1.27,1.27,0,1,1-1.27,1.27A1.27,1.27,0,0,1,203.6,138.17Z"/><path class="cls-3" d="M35.7,138.2a1.27,1.27,0,0,0,0,1.8,1.27,1.27,0,0,0,1.8-1.8A1.27,1.27,0,0,0,35.7,138.2Z"/></g><g class="cls-2"><polygon class="cls-3" points="169.66 159.65 155.97 159.65 155.97 159.31 169.52 159.31 185.09 143.74 185.33 143.98 169.66 159.65"/><path class="cls-3" d="M184.27,143a1.27,1.27,0,1,1,1.79,1.8,1.27,1.27,0,0,1-1.79-1.8Z"/><circle class="cls-3" cx="156.03" cy="159.48" r="1.27"/></g><g class="cls-2"><polygon class="cls-3" points="212.41 96.69 194.09 78.37 142.47 78.37 125.17 61.07 96.48 61.07 81.52 76.04 19.45 76.04 1.11 57.69 1.34 57.45 19.59 75.7 81.38 75.7 96.34 60.74 125.31 60.74 142.61 78.04 194.23 78.04 212.65 96.45 212.41 96.69"/><path class="cls-3" d="M213.39,95.63a1.27,1.27,0,1,1-1.8,1.8,1.27,1.27,0,0,1,1.8-1.8Z"/><path class="cls-3" d="M2.17,56.72a1.27,1.27,0,0,0-1.8,0,1.29,1.29,0,0,0,0,1.8,1.29,1.29,0,0,0,1.8,0A1.27,1.27,0,0,0,2.17,56.72Z"/></g><g class="cls-2"><polygon class="cls-3" points="204.72 100.26 189.84 85.38 143.57 85.38 125.52 67.32 97.58 67.32 74.83 90.07 74.59 89.83 97.44 66.98 125.66 66.98 143.71 85.04 189.98 85.04 204.96 100.02 204.72 100.26"/><path class="cls-3" d="M205.7,99.2a1.27,1.27,0,1,1-1.8,1.8,1.27,1.27,0,0,1,1.8-1.8Z"/><circle class="cls-3" cx="74.76" cy="89.9" r="1.27"/></g><g class="cls-2"><polygon class="cls-3" points="154.42 145.1 137.09 145.1 104.08 112.09 16.45 112.09 16.45 111.75 104.22 111.75 137.23 144.76 154.28 144.76 166.63 132.41 200.13 132.41 214.61 117.93 214.85 118.17 200.28 132.74 166.78 132.74 154.42 145.1"/><path class="cls-3" d="M213.78,117.2a1.27,1.27,0,1,1,0,1.79A1.27,1.27,0,0,1,213.78,117.2Z"/><path class="cls-3" d="M16.52,110.65a1.27,1.27,0,1,0,1.27,1.27A1.27,1.27,0,0,0,16.52,110.65Z"/></g><g class="cls-2"><polygon class="cls-3" points="137.94 105.56 126.17 105.56 126.17 105.22 137.8 105.22 148.51 94.51 188.56 94.51 188.56 94.85 148.65 94.85 137.94 105.56"/><path class="cls-3" d="M188.5,93.41a1.27,1.27,0,1,1-1.27,1.27A1.27,1.27,0,0,1,188.5,93.41Z"/><circle class="cls-3" cx="126.24" cy="105.39" r="1.27"/></g><g class="cls-2"><polygon class="cls-3" points="137.17 95.05 120.78 78.65 97.07 78.65 97.07 78.31 120.92 78.31 137.41 94.81 137.17 95.05"/><path class="cls-3" d="M138.15,94a1.27,1.27,0,0,1-1.8,1.8,1.27,1.27,0,0,1,0-1.8A1.29,1.29,0,0,1,138.15,94Z"/><path class="cls-3" d="M97.13,77.21a1.27,1.27,0,1,0,1.27,1.27A1.27,1.27,0,0,0,97.13,77.21Z"/></g><g class="cls-2"><polygon class="cls-3" points="126.19 96.69 114.74 85.24 93.77 85.24 93.77 84.9 114.88 84.9 126.43 96.45 126.19 96.69"/><circle class="cls-3" cx="126.27" cy="96.53" r="1.27"/><circle class="cls-3" cx="93.84" cy="85.07" r="1.27"/></g><g class="cls-2"><rect class="cls-3" x="17.55" y="144.64" width="14.61" height="0.34"/><circle class="cls-3" cx="32.1" cy="144.81" r="1.27"/><path class="cls-3" d="M17.61,143.54a1.27,1.27,0,1,0,1.27,1.27A1.27,1.27,0,0,0,17.61,143.54Z"/></g><g class="cls-2"><polygon class="cls-3" points="118.07 146.82 103.32 132.07 55.99 132.07 55.99 131.73 103.46 131.73 118.31 146.58 118.07 146.82"/><path class="cls-3" d="M119,145.76a1.27,1.27,0,0,1-1.8,1.79,1.27,1.27,0,0,1,1.8-1.79Z"/><circle class="cls-3" cx="56.06" cy="131.9" r="1.27"/></g><g class="cls-2"><polygon class="cls-3" points="40.3 207.31 8.21 207.31 8.21 206.97 40.16 206.97 64.6 182.53 92.61 182.53 108.53 166.6 138.7 166.6 138.7 166.94 108.67 166.94 92.75 182.87 64.74 182.87 40.3 207.31"/><circle class="cls-3" cx="138.64" cy="166.77" r="1.27"/><path class="cls-3" d="M8.28,205.87a1.27,1.27,0,1,0,1.27,1.27A1.27,1.27,0,0,0,8.28,205.87Z"/></g><g class="cls-2"><polygon class="cls-3" points="6.88 169.88 6.64 169.65 25.61 150.68 82.31 150.68 93.3 161.66 127.72 161.66 127.72 162 93.16 162 82.17 151.02 25.75 151.02 6.88 169.88"/><circle class="cls-3" cx="127.65" cy="161.83" r="1.27"/><path class="cls-3" d="M5.91,168.82a1.27,1.27,0,0,0,0,1.8,1.27,1.27,0,1,0,0-1.8Z"/></g><g class="cls-2"><polygon class="cls-3" points="38.38 190.56 11.88 190.56 2.52 181.2 2.76 180.96 12.02 190.22 38.24 190.22 58.01 170.45 90.37 170.45 90.37 170.79 58.15 170.79 38.38 190.56"/><path class="cls-3" d="M90.31,169.35A1.27,1.27,0,1,1,89,170.62,1.27,1.27,0,0,1,90.31,169.35Z"/><path class="cls-3" d="M3.59,180.23a1.27,1.27,0,1,0-1.8,1.8,1.27,1.27,0,0,0,1.8-1.8Z"/></g><g class="cls-2"><polygon class="cls-3" points="30.97 177.65 17.55 177.65 17.55 177.31 30.83 177.31 45.93 162.21 79.39 162.21 79.39 162.55 46.07 162.55 30.97 177.65"/><path class="cls-3" d="M79.33,161.11a1.27,1.27,0,1,1-1.27,1.27A1.27,1.27,0,0,1,79.33,161.11Z"/><circle class="cls-3" cx="17.61" cy="177.48" r="1.27"/></g><g class="cls-2"><polygon class="cls-3" points="3.59 145.17 3.35 144.93 27.81 120.48 92.02 120.48 92.02 120.81 27.95 120.81 3.59 145.17"/><path class="cls-3" d="M92,119.37a1.28,1.28,0,1,1-1.27,1.27A1.27,1.27,0,0,1,92,119.37Z"/><path class="cls-3" d="M2.61,144.11a1.27,1.27,0,0,0,1.8,1.8,1.27,1.27,0,1,0-1.8-1.8Z"/></g><g class="cls-2"><polygon class="cls-3" points="144.65 134.27 134.35 134.27 104.28 104.2 10.96 104.2 10.96 103.86 104.42 103.86 134.49 133.93 144.51 133.93 156.31 122.12 188.72 122.12 198.25 112.59 198.49 112.83 188.86 122.46 156.45 122.46 144.65 134.27"/><path class="cls-3" d="M197.42,111.86a1.27,1.27,0,1,1,0,1.79A1.27,1.27,0,0,1,197.42,111.86Z"/><circle class="cls-3" cx="11.02" cy="104.03" r="1.27"/></g><g class="cls-2"><polygon class="cls-3" points="143.69 125.07 132.7 125.07 103.66 96.03 6.02 96.03 6.02 95.69 103.8 95.69 132.84 124.73 143.55 124.73 151.92 116.36 186.25 116.36 194.95 107.65 195.19 107.89 186.38 116.69 152.06 116.69 143.69 125.07"/><path class="cls-3" d="M194.13,106.91a1.27,1.27,0,0,1,1.8,1.8,1.27,1.27,0,1,1-1.8-1.8Z"/><path class="cls-3" d="M6.08,94.59a1.27,1.27,0,1,0,1.27,1.27A1.27,1.27,0,0,0,6.08,94.59Z"/></g><g class="cls-2"><polygon class="cls-3" points="143.08 113.32 142.84 113.08 154.12 101.8 189.23 101.8 189.23 102.14 154.26 102.14 143.08 113.32"/><path class="cls-3" d="M189.16,100.7a1.27,1.27,0,1,1-1.27,1.27A1.27,1.27,0,0,1,189.16,100.7Z"/><circle class="cls-3" cx="143" cy="113.16" r="1.27"/></g><g class="cls-2"><polygon class="cls-3" points="113.99 38.44 79.43 38.44 53.05 12.05 53.29 11.82 79.57 38.1 113.99 38.1 113.99 38.44"/><path class="cls-3" d="M113.92,37a1.27,1.27,0,1,1-1.27,1.27A1.27,1.27,0,0,1,113.92,37Z"/><path class="cls-3" d="M54.11,11.08a1.27,1.27,0,0,0-1.8,1.8,1.27,1.27,0,0,0,1.8-1.8Z"/></g><g class="cls-2"><polygon class="cls-3" points="67.68 38.77 50.73 21.82 3.96 21.82 3.96 21.48 50.87 21.48 67.92 38.53 67.68 38.77"/><path class="cls-3" d="M68.65,37.7a1.27,1.27,0,0,1-1.8,1.8,1.27,1.27,0,0,1,1.8-1.8Z"/><path class="cls-3" d="M4,20.38a1.27,1.27,0,1,0,1.27,1.27A1.27,1.27,0,0,0,4,20.38Z"/></g><g class="cls-2"><polygon class="cls-3" points="286.57 164.1 337.94 164.1 359.6 185.76 397.79 185.76 427.74 215.71 427.5 215.94 397.64 186.09 359.46 186.09 337.8 164.44 286.57 164.44 286.57 164.1"/><path class="cls-3" d="M286.63,165.54a1.27,1.27,0,1,1,1.28-1.27A1.27,1.27,0,0,1,286.63,165.54Z"/><path class="cls-3" d="M426.67,216.68a1.27,1.27,0,0,0,1.8,0,1.27,1.27,0,1,0-1.8,0Z"/></g><g class="cls-2"><polygon class="cls-3" points="445.29 1.1 479.98 1.1 479.98 1.44 445.43 1.44 426.32 20.55 388.14 20.55 366.48 42.21 313.97 42.21 294.63 61.55 294.4 61.31 313.83 41.87 366.34 41.87 388 20.21 426.18 20.21 445.29 1.1"/><path class="cls-3" d="M295.46,62.28a1.27,1.27,0,0,1-1.8,0,1.27,1.27,0,1,1,1.8-1.8A1.27,1.27,0,0,1,295.46,62.28Z"/><path class="cls-3" d="M479.92,2.54a1.27,1.27,0,1,0-1.27-1.27A1.27,1.27,0,0,0,479.92,2.54Z"/></g><g class="cls-2"><polygon class="cls-3" points="270.84 138.74 288.34 156.24 348.47 156.24 366.46 174.22 390.62 174.22 400.3 164.54 473.51 164.54 473.51 164.88 400.44 164.88 390.76 174.56 366.32 174.56 348.33 156.57 288.2 156.57 270.6 138.98 270.84 138.74"/><path class="cls-3" d="M269.87,139.81a1.27,1.27,0,1,1,1.8-1.8,1.27,1.27,0,0,1-1.8,1.8Z"/><path class="cls-3" d="M473.44,166a1.27,1.27,0,1,0-1.27-1.27A1.27,1.27,0,0,0,473.44,166Z"/></g><g class="cls-2"><polygon class="cls-3" points="318.7 46.55 339.02 46.55 354.06 61.59 383.51 61.59 398.16 76.24 442.09 76.24 442.09 76.58 398.02 76.58 383.37 61.92 353.92 61.92 338.88 46.89 318.84 46.89 298.19 67.54 297.95 67.3 318.7 46.55"/><path class="cls-3" d="M299,68.28a1.27,1.27,0,0,1-1.8-1.8,1.27,1.27,0,1,1,1.8,1.8Z"/><circle class="cls-3" cx="442.03" cy="76.41" r="1.27"/></g><g class="cls-2"><polygon class="cls-3" points="273.04 130.52 290.12 147.6 347.37 147.6 366.53 166.75 384.03 166.75 398.07 152.72 453.19 152.72 453.19 153.05 398.21 153.05 384.17 167.09 366.39 167.09 347.23 147.94 289.98 147.94 272.8 130.76 273.04 130.52"/><path class="cls-3" d="M453.12,151.61a1.28,1.28,0,1,1-1.27,1.27A1.27,1.27,0,0,1,453.12,151.61Z"/><path class="cls-3" d="M273.86,129.79a1.27,1.27,0,1,0,0,1.79A1.26,1.26,0,0,0,273.86,129.79Z"/></g><g class="cls-2"><polygon class="cls-3" points="321.29 63.3 346.16 63.3 374.99 92.13 434.44 92.13 448.78 77.79 449.02 78.03 434.58 92.47 374.85 92.47 346.02 63.64 321.43 63.64 307.28 77.78 281.79 77.78 281.79 77.44 307.14 77.44 321.29 63.3"/><path class="cls-3" d="M281.85,78.88a1.27,1.27,0,1,1,1.27-1.27A1.27,1.27,0,0,1,281.85,78.88Z"/><path class="cls-3" d="M449.75,78.85a1.27,1.27,0,1,0-1.79,0A1.27,1.27,0,0,0,449.75,78.85Z"/></g><g class="cls-2"><polygon class="cls-3" points="315.79 57.4 329.48 57.4 329.48 57.74 315.93 57.74 300.36 73.31 300.12 73.07 315.79 57.4"/><path class="cls-3" d="M301.18,74a1.27,1.27,0,1,1,0-1.79A1.26,1.26,0,0,1,301.18,74Z"/><path class="cls-3" d="M329.42,58.84a1.27,1.27,0,1,0-1.27-1.27A1.27,1.27,0,0,0,329.42,58.84Z"/></g><g class="cls-2"><polygon class="cls-3" points="273.04 120.36 291.36 138.68 342.98 138.68 360.28 155.98 388.97 155.98 403.94 141.01 466 141.01 484.35 159.36 484.11 159.6 465.86 141.35 404.08 141.35 389.11 156.31 360.14 156.31 342.84 139.02 291.22 139.02 272.8 120.6 273.04 120.36"/><path class="cls-3" d="M272.07,121.42a1.27,1.27,0,1,1,1.79,0A1.26,1.26,0,0,1,272.07,121.42Z"/><path class="cls-3" d="M483.28,160.33a1.27,1.27,0,1,0,0-1.79A1.27,1.27,0,0,0,483.28,160.33Z"/></g><g class="cls-2"><polygon class="cls-3" points="280.73 116.79 295.61 131.68 341.88 131.68 359.94 149.73 387.87 149.73 410.62 126.98 410.86 127.22 388.01 150.07 359.8 150.07 341.74 132.01 295.47 132.01 280.49 117.03 280.73 116.79"/><path class="cls-3" d="M279.75,117.85a1.27,1.27,0,1,1,1.8-1.79,1.27,1.27,0,0,1-1.8,1.79Z"/><path class="cls-3" d="M411.59,128.05a1.27,1.27,0,1,0-1.8-1.8,1.27,1.27,0,0,0,1.8,1.8Z"/></g><g class="cls-2"><polygon class="cls-3" points="331.03 71.95 348.36 71.95 381.37 104.96 469 104.96 469 105.3 381.23 105.3 348.22 72.29 331.17 72.29 318.82 84.65 285.32 84.65 270.84 99.12 270.6 98.88 285.18 84.31 318.68 84.31 331.03 71.95"/><path class="cls-3" d="M271.67,99.85a1.27,1.27,0,1,1,0-1.79A1.27,1.27,0,0,1,271.67,99.85Z"/><path class="cls-3" d="M468.94,106.4a1.27,1.27,0,1,0-1.28-1.27A1.27,1.27,0,0,0,468.94,106.4Z"/></g><g class="cls-2"><polygon class="cls-3" points="347.51 111.49 359.28 111.49 359.28 111.83 347.65 111.83 336.94 122.54 296.89 122.54 296.89 122.2 336.8 122.2 347.51 111.49"/><circle class="cls-3" cx="296.95" cy="122.37" r="1.27"/><circle class="cls-3" cx="359.21" cy="111.66" r="1.27"/></g><g class="cls-2"><polygon class="cls-3" points="348.28 122.01 364.67 138.4 388.38 138.4 388.38 138.74 364.53 138.74 348.04 122.25 348.28 122.01"/><path class="cls-3" d="M347.3,123.07a1.27,1.27,0,0,1,1.8-1.8,1.27,1.27,0,1,1-1.8,1.8Z"/><path class="cls-3" d="M388.32,139.84a1.27,1.27,0,1,0-1.27-1.27A1.27,1.27,0,0,0,388.32,139.84Z"/></g><g class="cls-2"><polygon class="cls-3" points="359.26 120.36 370.71 131.81 391.68 131.81 391.68 132.15 370.57 132.15 359.02 120.6 359.26 120.36"/><circle class="cls-3" cx="359.19" cy="120.52" r="1.27"/><path class="cls-3" d="M391.61,133.25a1.27,1.27,0,1,0-1.27-1.27A1.27,1.27,0,0,0,391.61,133.25Z"/></g><g class="cls-2"><rect class="cls-3" x="453.29" y="72.08" width="14.61" height="0.34"/><path class="cls-3" d="M453.35,73.52a1.28,1.28,0,1,1,1.27-1.28A1.27,1.27,0,0,1,453.35,73.52Z"/><path class="cls-3" d="M467.84,73.52a1.28,1.28,0,1,0-1.27-1.28A1.27,1.27,0,0,0,467.84,73.52Z"/></g><g class="cls-2"><polygon class="cls-3" points="367.38 70.23 382.13 84.98 429.46 84.98 429.46 85.32 381.99 85.32 367.14 70.47 367.38 70.23"/><path class="cls-3" d="M366.41,71.3a1.27,1.27,0,0,1,1.8-1.8,1.27,1.27,0,1,1-1.8,1.8Z"/><circle class="cls-3" cx="429.39" cy="85.15" r="1.27"/></g><g class="cls-2"><polygon class="cls-3" points="445.15 9.74 477.24 9.74 477.24 10.08 445.29 10.08 420.85 34.52 392.84 34.52 376.92 50.45 346.75 50.45 346.75 50.11 376.78 50.11 392.7 34.18 420.71 34.18 445.15 9.74"/><path class="cls-3" d="M346.81,51.55a1.27,1.27,0,1,1,1.27-1.27A1.27,1.27,0,0,1,346.81,51.55Z"/><path class="cls-3" d="M477.17,11.18a1.27,1.27,0,1,0-1.27-1.27A1.27,1.27,0,0,0,477.17,11.18Z"/></g><g class="cls-2"><polygon class="cls-3" points="478.57 47.17 478.81 47.41 459.84 66.37 403.14 66.37 392.15 55.39 357.73 55.39 357.73 55.05 392.29 55.05 403.28 66.03 459.7 66.03 478.57 47.17"/><path class="cls-3" d="M357.8,56.49a1.27,1.27,0,1,1,1.27-1.27A1.27,1.27,0,0,1,357.8,56.49Z"/><path class="cls-3" d="M479.54,48.23a1.27,1.27,0,1,0-1.79,0A1.27,1.27,0,0,0,479.54,48.23Z"/></g><g class="cls-2"><polygon class="cls-3" points="447.07 26.49 473.57 26.49 482.93 35.85 482.69 36.09 473.43 26.83 447.21 26.83 427.44 46.6 395.08 46.6 395.08 46.26 427.3 46.26 447.07 26.49"/><circle class="cls-3" cx="395.14" cy="46.43" r="1.27"/><path class="cls-3" d="M481.86,36.82a1.27,1.27,0,0,0,1.8-1.8,1.27,1.27,0,1,0-1.8,1.8Z"/></g><g class="cls-2"><polygon class="cls-3" points="454.49 39.4 467.9 39.4 467.9 39.74 454.63 39.74 439.52 54.84 406.06 54.84 406.06 54.5 439.38 54.5 454.49 39.4"/><circle class="cls-3" cx="406.12" cy="54.67" r="1.27"/><circle class="cls-3" cx="467.84" cy="39.57" r="1.27"/></g><g class="cls-2"><polygon class="cls-3" points="481.86 71.88 482.1 72.12 457.64 96.58 393.43 96.58 393.43 96.24 457.5 96.24 481.86 71.88"/><path class="cls-3" d="M393.49,97.68a1.27,1.27,0,1,1,1.27-1.27A1.27,1.27,0,0,1,393.49,97.68Z"/><path class="cls-3" d="M482.84,72.94a1.27,1.27,0,1,0-1.8-1.8,1.27,1.27,0,0,0,1.8,1.8Z"/></g><g class="cls-2"><polygon class="cls-3" points="340.8 82.78 351.1 82.78 381.17 112.85 474.49 112.85 474.49 113.19 381.03 113.19 350.96 83.12 340.94 83.12 329.14 94.93 296.74 94.93 287.2 104.46 286.96 104.22 296.6 94.59 329 94.59 340.8 82.78"/><path class="cls-3" d="M288,105.19a1.27,1.27,0,1,1,0-1.79A1.27,1.27,0,0,1,288,105.19Z"/><path class="cls-3" d="M474.43,114.29a1.27,1.27,0,1,0-1.27-1.27A1.27,1.27,0,0,0,474.43,114.29Z"/></g><g class="cls-2"><polygon class="cls-3" points="341.76 91.98 352.75 91.98 381.79 121.02 479.43 121.02 479.43 121.36 381.65 121.36 352.61 92.32 341.9 92.32 333.53 100.69 299.21 100.69 290.5 109.4 290.26 109.16 299.07 100.36 333.39 100.36 341.76 91.98"/><path class="cls-3" d="M291.32,110.14a1.27,1.27,0,1,1-1.79-1.8,1.27,1.27,0,0,1,1.79,1.8Z"/><path class="cls-3" d="M479.37,122.46a1.27,1.27,0,1,0-1.27-1.27A1.27,1.27,0,0,0,479.37,122.46Z"/></g><g class="cls-2"><polygon class="cls-3" points="342.37 103.73 342.61 103.97 331.33 115.25 296.22 115.25 296.22 114.91 331.19 114.91 342.37 103.73"/><circle class="cls-3" cx="296.29" cy="115.08" r="1.27"/><path class="cls-3" d="M343.35,104.79a1.27,1.27,0,1,0-1.8-1.79,1.27,1.27,0,0,0,1.8,1.79Z"/></g><g class="cls-2"><polygon class="cls-3" points="371.46 178.62 406.02 178.62 432.4 205 432.16 205.24 405.88 178.95 371.46 178.95 371.46 178.62"/><path class="cls-3" d="M371.53,180.06a1.28,1.28,0,1,1,1.27-1.27A1.27,1.27,0,0,1,371.53,180.06Z"/><path class="cls-3" d="M431.34,206a1.27,1.27,0,0,0,1.8,0,1.27,1.27,0,1,0-1.8-1.8A1.27,1.27,0,0,0,431.34,206Z"/></g><g class="cls-2"><polygon class="cls-3" points="417.77 178.28 434.72 195.23 481.49 195.23 481.49 195.57 434.58 195.57 417.53 178.52 417.77 178.28"/><path class="cls-3" d="M416.8,179.35a1.27,1.27,0,0,1,1.8-1.8,1.27,1.27,0,1,1-1.8,1.8Z"/><circle class="cls-3" cx="481.43" cy="195.4" r="1.27"/></g></g></g></g></svg>