<svg xmlns="http://www.w3.org/2000/svg" xmlns:xlink="http://www.w3.org/1999/xlink" viewBox="0 0 400.82 400.64"><defs><style>.cls-1{fill:url(#Gradiente_sem_nome_18);}</style><linearGradient id="Gradiente_sem_nome_18" y1="200.32" x2="400.82" y2="200.32" gradientUnits="userSpaceOnUse"><stop offset="0" stop-color="#6b00ff"/><stop offset="1" stop-color="#b600c9"/></linearGradient></defs><g id="Camada_2" data-name="Camada 2"><g id="Camada_1-2" data-name="Camada 1"><g id="E7Wo4r"><path class="cls-1" d="M34.31,100.37c.2-2.92.24-5.93.63-8.89,1.13-8.49,5.8-14.6,14.17-16.12,15-2.72,23.14-11,26.35-26,2.3-10.65,9-14.56,20.19-15.08,4.82-.23,9.58,1,14.44,0,4.62-1,8.42-3.05,11.19-6.9q3.34-4.67,6.64-9.38c5.78-8.22,13.42-10.92,23.1-8,3.52,1,7,2.32,10.44,3.46,6.82,2.24,13.11,1.41,18.84-3.12,2.87-2.27,5.81-4.47,8.83-6.55,7.68-5.26,16.2-5,23.68.52a6.88,6.88,0,0,1,.77.64c9.79,10,20.62,11.66,33.66,6.11,12.2-5.18,19.51-2.13,26.95,8.76,1.7,2.48,3.48,4.89,5.22,7.33,4.19,5.86,10.17,7.74,17,7.6,3-.07,6-.43,9-.36,10.85.27,17.72,4.26,19.9,14.69,3.23,15.43,11.84,23.46,27.05,26.52,9.47,1.91,13.66,9.34,14.09,20,.19,4.65-1,9.22-.15,13.94a17.74,17.74,0,0,0,7,11.63c3.2,2.4,6.52,4.64,9.79,6.94,7.56,5.35,10.4,12.94,7.93,21.84-1.21,4.33-2.67,8.59-4.19,12.83-2,5.68-.91,10.84,2.39,15.63,2.45,3.57,5.18,7,7.64,10.51,5.23,7.59,5.23,15.22.05,22.78a66.36,66.36,0,0,1-5.06,6.81c-6.57,7.32-7,15.45-3.6,24.22a77,77,0,0,1,2.75,8c2.43,9.1-.29,16.42-7.94,21.83q-4.69,3.31-9.38,6.65c-6,4.29-7.95,10.39-7.65,17.46.13,3,.43,6,.31,9-.45,10.9-4.83,17.61-15.52,19.83-14.4,3-22.1,11-25.22,25.25-2.4,10.94-9,15-20.32,15.59-4.65.23-9.24-1-13.94-.1-5,1-9.07,3.13-12,7.34-2.09,3-4.24,6-6.35,9-5.82,8.29-13.36,10.95-23.08,8.14-4.79-1.38-9.36-3.46-14.32-4.38a16.84,16.84,0,0,0-13.28,2.86c-3.54,2.48-6.94,5.19-10.5,7.64-7.69,5.29-16.2,5.08-23.69-.44a5.81,5.81,0,0,1-.78-.63c-9.93-10.21-21-11.61-34.12-6-11.81,5-19.15,1.89-26.5-8.85-1.69-2.47-3.5-4.87-5.22-7.32-4.16-5.91-10.15-7.76-17-7.66-2.83.05-5.65.42-8.48.38-11.37-.15-18.2-4.13-20.59-15.13-3.27-15-11.61-22.88-26.43-25.92-9.85-2-14.12-9.33-14.59-20.11-.2-4.65,1-9.25.09-13.94-1-5-3.18-9.05-7.38-12-3.14-2.19-6.26-4.42-9.39-6.63-7.56-5.35-10.37-12.92-7.9-21.84,1.11-4,2.44-8,3.9-11.87,2.39-6.37,1.14-12.11-2.7-17.46C8.73,218.13,6.24,215,4,211.7-1.23,204.13-1.44,196.26,4,189c11.79-15.73,14-16.74,6.19-38.15-3.48-9.62-.34-17.19,8-23,1.23-.86,2.43-1.77,3.72-2.53C31.53,119.69,36.83,112,34.31,100.37Zm80.72,88a12.55,12.55,0,0,0-11.77,7.42c-2.49,5.42-1.51,9.94,3.26,15a337.7,337.7,0,0,1,47.34,62.93c3.69,6.33,7,12.92,11.48,18.73,5.26,6.8,12.52,6.48,17.32-.61a44.68,44.68,0,0,0,2.74-4.75c3.86-7.56,7.5-15.24,11.54-22.71,16.89-31.22,35.09-61.65,55.84-90.48q16.48-22.9,35-44.29c4.72-5.45,4.27-11.09,0-15.31-3.94-3.89-10-3.76-15.39.35C262,122.52,253,132,243.83,141.16a655.76,655.76,0,0,0-72.46,87c-1.91,2.72-3.16,2.59-5.35.42-6.28-6.2-12.62-12.36-19.16-18.27-7.78-7-15.62-14-24.62-19.53C120,189.41,117.56,188.23,115,188.41Z"/></g></g></g></svg>