<svg xmlns="http://www.w3.org/2000/svg" viewBox="0 0 358.27 395.86"><defs><style>.cls-1{fill:#fff;}</style></defs><g id="Camada_2" data-name="Camada 2"><g id="Camada_1-2" data-name="Camada 1"><path class="cls-1" d="M166.81,0c4.49,1.19,7.93,3.92,11.16,7.16q58.29,58.4,116.71,116.68c4.94,4.91,7.31,10.31,7.1,17.3-.32,10.8-.07,21.61-.11,32.41,0,1.27.58,3.07-.79,3.64-1.79.76-2.49-1.25-3.32-2.33-5.62-7.41-12.3-13.1-22-13.93-2.67-.22-3.4-1.91-3.18-4.1.44-4.46-1.95-5.18-5.73-5.16q-35.64.15-71.29,0c-15.57-.08-28.52-5.75-37.56-18.89a39.47,39.47,0,0,1-7.26-22.91c0-24.94-.1-49.87.1-74.8,0-4.63-1.36-5.93-5.93-5.91-32.91.18-65.81.07-98.71.11-11.3,0-16.53,5.23-16.53,16.47q0,142.62,0,285.23c0,11.6,5.16,16.79,16.71,16.79,44.53,0,89.07.08,133.6-.09,4.61,0,7.23,1.35,9.33,5.5,3.7,7.29,8.88,13.62,14.57,19.5.89.93,2.35,1.94,1.89,3.29-.62,1.8-2.56,1.15-3.95,1.15-52.68,0-105.36.22-158-.07C18.23,376.92,0,358.09,0,332.79Q0,189.44,0,46.06C0,21.51,12.83,5.68,36.78.55A8.2,8.2,0,0,0,38.17,0Zm13.25,52.58c-.08,1-.23,2.18-.23,3.32,0,16.94-.07,33.88,0,50.81,0,10.26,5.47,15.6,15.76,15.63q25.4.07,50.79,0c1.25,0,2.65.5,3.3-.15Z"/><path class="cls-1" d="M358.27,285.28c-1.07,9.88-1.54,19.83-4.14,29.51-11.1,41.37-39,66.39-78.11,80.52a10.53,10.53,0,0,1-7.32-.25c-43.52-15.65-71.36-45-79.18-91.48-3.32-19.77-1.53-39.79-1.86-59.71-.09-5.48-.14-11,0-16.45.25-7.49,3.56-10.57,11-11.31,25.95-2.6,48.49-12.06,65.52-32.65,5-6.05,12.23-6.17,17.12-.21,16.72,20.34,38.89,30,64.45,32.68,6.57.69,10.44,3.52,12.44,9.5Z"/><path class="cls-1" d="M194.06,198c-6.92,2.05-12.18,4.32-16.22,8.81-3.41,3.79-6.37,7.94-6.75,13.06-.45,6-3.47,7-8.81,6.93-19.1-.29-38.22-.12-57.33-.12-4.82,0-9.64.1-14.45,0C82,226.41,75.14,219.8,75.14,212c0-7.49,6.77-14.58,14.89-14.62,33.73-.15,67.47-.05,101.2,0A20.43,20.43,0,0,1,194.06,198Z"/><path class="cls-1" d="M127.42,292.5c-11.8,0-23.59,0-35.38,0-9.52,0-16.87-6.48-16.9-14.67S82.3,263.11,92,263.09c24.08,0,48.16.08,72.24-.09,4.55,0,6.25,1.43,6,6-.31,5.63-.05,11.29-.07,16.94,0,6.46-.08,6.52-6.82,6.54C151.33,292.52,139.37,292.5,127.42,292.5Z"/></g></g></svg>