<svg xmlns="http://www.w3.org/2000/svg" viewBox="0 0 310.35 357.81"><defs><style>.cls-1{fill:#fff;}</style></defs><g id="Camada_2" data-name="Camada 2"><g id="Camada_1-2" data-name="Camada 1"><g id="gL4ePa"><path class="cls-1" d="M0,143.62v-132C0,2.11,1.91,0,11.24,0Q113.72,0,216.18,0c8.4,0,10.28,2,10.36,10.29.09,10.5-1.19,9.33,9.3,9.44,8.63.1,10.5,1.95,10.58,10.62.09,9.22.09,9.22,8.89,9.27s10.87,1.93,10.88,10.86q0,75-.08,150c0,4.59,1.06,7.51,5.31,10.1,21.85,13.36,34.87,32.66,38.26,58.32,4.71,35.52-16,71.07-51.28,84.12-30.09,11.15-64.6,2.56-86.57-22.08a10.91,10.91,0,0,0-9-4.07c-37.23.09-74.46,0-111.7,0-9.91,0-11.92-1.94-12-12,0-7.77,0-7.77-7.61-7.8-10.12,0-11.65-1.54-11.67-11.48,0-1.49-.06-3,0-4.49.09-2.78-1.31-3.92-4-3.88-2.83,0-5.66,0-8.49,0C3,287.2.62,284.82.14,280.57A50.2,50.2,0,0,1,0,275.08Q0,209.35,0,143.62Zm46.57,39.26q0,64.74,0,129.5c0,6.61.07,6.63,6.6,6.63q51.49,0,103,0c6.25,0,6.22,0,3.75-5.44-.9-2-1.69-4-2.44-6-10.34-28-6.94-54.64,11.54-77.82,21.78-27.32,50.9-35.48,84.63-27,4.19,1.05,5.2.24,5.19-4q-.15-73,0-146c0-4.3-1.16-5.75-5.63-5.74q-100,.2-200,.1c-6.51,0-6.67.19-6.67,6.8Q46.57,118.38,46.58,182.88ZM231.51,207a71.38,71.38,0,0,0-72,71.43c0,38.54,30.4,71.73,71.2,71.92,42.1.19,71.75-33.17,72.19-70.35C303.34,239.26,271.72,207.14,231.51,207Zm-224-63.31v127c0,2,0,4,.07,6a2.83,2.83,0,0,0,2.1,3c6.52,2.18,10.21-.26,10.21-6.92v-240c0-1.84.07-3.68,0-5.5-.27-4.63,2.42-6.66,6.48-7.34a29.64,29.64,0,0,1,5-.14q88.5,0,177,0c2.33,0,4.67,0,7,0,1.33,0,2.62-.1,3.4-1.55,2.82-5.22-.27-10.82-6-10.82h-198c-7.13,0-7.19.07-7.19,7.33Zm19.82,19.52q0,65,0,130c0,6.35.27,6.2,6.35,6.59,5.8.38,5.53-3.05,5.53-7q0-120.49,0-241c0-10.77,1.4-12.21,11.93-12.21H231.56c1.5,0,3,0,4.5-.08a2.77,2.77,0,0,0,2.62-1.93c2.43-6.11-.26-10.41-6.59-10.41q-99,0-198,0c-6.78,0-6.81,0-6.81,7Q27.28,98.72,27.29,163.21Z"/><path class="cls-1" d="M128.7,152.78h49a37.29,37.29,0,0,1,4.49.15c2.19.27,3.89,1.36,3.82,3.8-.06,2.22-1.75,3.09-3.72,3.33a33.19,33.19,0,0,1-4,.15H77.8a34,34,0,0,1-3.5-.1c-2.07-.21-3.45-1.26-3.47-3.5s1.37-3.34,3.38-3.64a30.49,30.49,0,0,1,4.49-.19Z"/><path class="cls-1" d="M115,107.18H76.6c-2.75,0-5.8,0-5.84-3.75,0-3.86,3.16-3.66,5.83-3.66q38.4,0,76.81,0c2.74,0,5.86,0,5.88,3.71s-3.16,3.71-5.86,3.72Q134.22,107.23,115,107.18Z"/><path class="cls-1" d="M106.57,266.26c-10.13,0-20.27,0-30.4,0-2.52,0-5.4.07-5.3-3.59.1-3.38,2.76-3.76,5.39-3.76q30.15,0,60.31,0c2.74,0,5.81.33,5.6,4-.19,3.35-3.14,3.35-5.69,3.35Z"/><path class="cls-1" d="M202.14,107.19c-9,0-17.95,0-26.93,0-2.68,0-5.89.1-6-3.59s3-3.82,5.76-3.83q26.67,0,53.35,0c2.66,0,5.92-.19,6,3.58,0,4.09-3.43,3.81-6.23,3.83C219.43,107.23,210.78,107.19,202.14,107.19Z"/><path class="cls-1" d="M102.18,213.22q-13,0-26,0c-2.61,0-5.36-.14-5.4-3.63s2.79-3.74,5.33-3.75q26.47-.06,52.93,0c2.65,0,5.31.52,5.18,3.94-.12,3.12-2.67,3.43-5.12,3.44Q115.67,213.24,102.18,213.22Z"/><path class="cls-1" d="M214.59,160.2c-4.83,0-9.66,0-14.49,0-2.39,0-4.49-.77-4.6-3.49s2-3.79,4.31-3.81q15.24-.13,30.47,0c2.16,0,4,1,4.08,3.49,0,2.77-1.86,3.76-4.29,3.79-5.16.07-10.32,0-15.48,0Z"/><path class="cls-1" d="M156.74,213.14c-3,0-6,.08-8.94,0-2-.08-3.52-1.14-3.66-3.31-.16-2.47,1.41-3.77,3.63-3.82q8.94-.21,17.87,0c2.2.06,3.82,1.31,3.67,3.8s-2,3.31-4.13,3.38c-2.81.09-5.63,0-8.44,0Z"/><path class="cls-1" d="M214.44,277c-1.31,8.7-2.76,17.39-3.86,26.12-.44,3.49-1.89,4.87-5.41,5-3.74.12-5.49-1.35-6-5q-3.28-25-6.72-49.93c-.28-2-.21-3.73,2.33-4s4.63.32,5.06,3.37q1.77,12.6,3.59,25.2c.46,3.25.9,6.5,1.38,10,2.09-.59,1.89-2,2-3.24,1.33-10.22,2.78-20.42,3.92-30.66.34-3,1.35-4.57,4.5-4.63,3.51-.07,3.88,2.15,4.22,4.88,1.56,12.53,3.27,25.05,5.11,39,1.88-13.83,3.56-26.24,5.24-38.64.09-.66.1-1.33.15-2,.22-2.86,2-3.57,4.52-3.3s2.52,2,2.24,4q-2.92,21.49-5.73,43c-.26,2-.28,4-.59,5.94-.51,3.22-1.1,6.06-5.62,6.05-4.3,0-5.38-2.27-5.83-5.78-1.11-8.52-2.32-17-3.49-25.53Z"/><path class="cls-1" d="M243.86,278.25c0-8.15.1-16.3-.05-24.44-.07-3.44,1.33-4.92,4.67-4.77h.5c19-.85,27.13,10.78,20.23,28.86-2.07,5.44-6.7,7.38-12,7.22-4.68-.13-6.2,1.57-5.88,6.07.3,4.13,0,8.3.06,12.46,0,2.79-1,4.43-4.05,4.35s-3.52-1.84-3.51-4.31c0-8.48,0-17,0-25.43ZM251.44,267c0,2-.11,4,0,6s-.88,5,2.26,5.19,7.09.33,8.3-3.78a23.38,23.38,0,0,0-.23-14.65c-1.36-3.82-4.75-3.73-7.94-3.33s-2.25,3.15-2.39,5.14C251.34,263.36,251.44,265.2,251.44,267Z"/></g></g></g></svg>