<?xml version="1.0" encoding="utf-8"?>
<!-- Generator: Adobe Illustrator 25.3.0, SVG Export Plug-In . SVG Version: 6.00 Build 0)  -->
<svg version="1.1" id="Camada_1" xmlns="http://www.w3.org/2000/svg" xmlns:xlink="http://www.w3.org/1999/xlink" x="0px" y="0px"
	 viewBox="0 0 122.6 156.2" style="enable-background:new 0 0 122.6 156.2;" xml:space="preserve">
<style type="text/css">
	.st0{fill:#FFFFFF;}
</style>
<g id="Camada_2_1_">
	<g id="Camada_1-2">
		<g>
			<path class="st0" d="M120.8,62.7L120.8,62.7c-1,0-1.9,0.4-2.5,1.2L105,80.7c-1.1,1.4-1.6,3.2-1.3,4.9l4.8,29.5
				c0.3,1.7-0.9,3.3-2.6,3.6c-0.6,0.1-1.2,0-1.8-0.2l-22.9-10c-0.8-0.4-1.7-0.5-2.5-0.5c-1.3,0-2.6,0.5-3.7,1.3l-37.6,27.9
				c-1.4,1-3.4,0.7-4.4-0.6c-0.6-0.8-0.8-1.9-0.5-2.9l14.2-43c0.8-2.5,0-5.2-2-6.9L18.4,62.4c-1.4-1.1-1.6-3.1-0.5-4.4
				c0.5-0.6,1.3-1,2.1-1.1l42.5-4.7c1.8-0.2,3.5-1.2,4.5-2.7l10.2-14.5l0.1-0.1l5.5-7.9l0.1,0.2l3.2-4.4c0.7-0.9,0.8-2.1,0.3-3.1
				l-0.2-0.3c-0.7-1.6-2.6-2.3-4.2-1.6c-0.5,0.2-1,0.6-1.3,1.1L62.6,44.6c-0.5,0.8-1.3,1.3-2.2,1.4L4.3,52.2c-1.7,0.2-3,1.8-2.8,3.5
				c0.1,0.8,0.5,1.6,1.1,2.1l36.4,29.4c1,0.8,1.4,2.2,1,3.4l-19.8,59.9c-0.5,1.7,0.3,3.4,2,4c1,0.3,2,0.2,2.9-0.5l52.1-38.7
				c0.9-0.7,2.1-0.8,3.1-0.4l31.8,13.9c1.6,0.7,3.5-0.1,4.2-1.7c0.2-0.5,0.3-1.2,0.2-1.7L110.2,86c-0.1-0.9,0.1-1.8,0.6-2.5
				C110.8,83.5,123.4,62.7,120.8,62.7z"/>
			<path class="st0" d="M23.2,156.2c-0.5,0-1-0.1-1.5-0.2c-1.2-0.4-2.1-1.2-2.7-2.3s-0.6-2.4-0.3-3.5l19.8-59.9
				c0.2-0.7,0-1.4-0.5-1.8L1.7,59c-1-0.8-1.6-1.9-1.7-3.1c-0.1-1.2,0.2-2.5,1-3.4s1.9-1.6,3.1-1.7l56.1-6.2c0.5-0.1,0.9-0.3,1.2-0.7
				l18.3-25.9c0.5-0.7,1.2-1.2,1.9-1.6c1.1-0.5,2.4-0.5,3.6-0.1c1.2,0.4,2.1,1.3,2.6,2.5l0.1,0.3c0.7,1.5,0.5,3.3-0.5,4.6L82.6,30
				l-0.1-0.2L68.2,50.3c-1.3,1.9-3.4,3-5.6,3.3l-42.5,4.7c-0.4,0.1-0.8,0.3-1.1,0.6c-0.3,0.3-0.4,0.8-0.4,1.2c0,0.4,0.3,0.8,0.6,1.1
				l26.4,21.3c2.5,2,3.5,5.5,2.5,8.5l-14.2,43c-0.2,0.5-0.1,1.1,0.2,1.5c0.3,0.4,0.6,0.6,1.1,0.6c0.4,0.1,0.9,0,1.2-0.3L74.1,108
				c1.3-1,2.9-1.6,4.6-1.6c1.1,0,2.2,0.2,3.2,0.7l22.9,10c0.3,0.1,0.6,0.2,0.9,0.1c0.9-0.1,1.5-1,1.4-1.9l-4.8-29.5
				c-0.3-2.2,0.2-4.4,1.6-6.1L117.1,63c0.9-1.1,2.2-1.8,3.7-1.8c0,0,0,0,0,0c0.7,0,1.3,0.3,1.6,0.9c0.4,0.7,1.5,2.7-10.3,22.2
				l-0.1,0.2c-0.3,0.4-0.4,0.8-0.3,1.3l6.4,39.5c0.1,0.9,0,1.8-0.3,2.6c-0.5,1.1-1.4,2-2.6,2.5c-1.2,0.5-2.4,0.4-3.6,0l-31.8-13.9
				c-0.5-0.2-1.2-0.2-1.6,0.2L26,155.3C25.2,155.9,24.2,156.2,23.2,156.2z M83.4,18.9c-0.2,0-0.5,0-0.7,0.1
				c-0.3,0.1-0.5,0.3-0.7,0.6L63.8,45.5c-0.7,1.1-1.9,1.8-3.3,2L4.5,53.7c-0.4,0-0.8,0.3-1.1,0.6C3.1,54.7,3,55.1,3,55.5
				c0,0.4,0.3,0.8,0.6,1.1L40,86c1.5,1.2,2.1,3.3,1.5,5.1L21.7,151c-0.1,0.4-0.1,0.9,0.1,1.3c0.2,0.4,0.5,0.7,1,0.8
				c0.5,0.2,1.1,0.1,1.5-0.2l52.1-38.7c1.3-1,3.1-1.2,4.6-0.5l31.8,13.9c0.4,0.2,0.9,0.2,1.3,0c0.4-0.2,0.7-0.5,0.9-0.9
				c0.1-0.3,0.2-0.6,0.1-0.9l-6.4-39.5c-0.2-1.3,0.1-2.5,0.9-3.5c3.7-6.2,7.7-13.3,9.3-17.1l-12.7,16c-0.8,1.1-1.2,2.4-1,3.8
				l4.8,29.5c0.4,2.5-1.3,4.9-3.8,5.3c-0.9,0.1-1.8,0-2.6-0.3l-22.9-10c-0.6-0.3-1.3-0.4-1.9-0.4c-1,0-2,0.4-2.8,1l-37.6,27.9
				c-1,0.7-2.2,1-3.4,0.9c-1.2-0.2-2.3-0.8-3.1-1.8c-0.9-1.2-1.2-2.8-0.7-4.2l14.2-43c0.6-1.9,0-4-1.5-5.3L17.4,63.5
				c-1-0.8-1.6-1.9-1.7-3.1c-0.1-1.2,0.2-2.5,1-3.4c0.8-0.9,1.8-1.5,3.1-1.7l42.5-4.7c1.4-0.1,2.7-0.9,3.5-2L83.1,24l0.1,0.3
				l1.7-2.4c0.4-0.5,0.4-1.1,0.2-1.6l-0.2-0.3c-0.2-0.4-0.5-0.7-0.9-0.9C83.8,18.9,83.6,18.9,83.4,18.9z"/>
		</g>
		<g>
			<path class="st0" d="M100.6,7.2c0-0.2,0-0.5-0.1-0.7c-0.4-3.9-3.9-6.9-7.8-6.5c-3.7,0.3-6.5,3.5-6.5,7.2c0,4,3.3,7.2,7.2,7.1
				c3.7,0,6.7-2.8,7.1-6.4C100.5,7.7,100.6,7.4,100.6,7.2z"/>
		</g>
	</g>
</g>
</svg>
