<svg xmlns="http://www.w3.org/2000/svg" viewBox="0 0 409.32 164.89"><defs><style>.cls-1{fill:#fff;}</style></defs><g id="Camada_2" data-name="Camada 2"><g id="Camada_1-2" data-name="Camada 1"><path class="cls-1" d="M120.75,62.72h0a3.17,3.17,0,0,0-2.47,1.19L105,80.7a6.35,6.35,0,0,0-1.28,4.92l4.81,29.47a3.15,3.15,0,0,1-4.37,3.4l-22.91-10a6.21,6.21,0,0,0-6.27.71l-37.59,27.9a3.15,3.15,0,0,1-4.87-3.52l14.24-43a6.27,6.27,0,0,0-2-6.89L18.39,62.38A3.16,3.16,0,0,1,20,56.79L62.5,52.08A6.36,6.36,0,0,0,67,49.43l10.18-14.5.08-.1,5.55-7.91.09.21,3.22-4.4a3.14,3.14,0,0,0,.33-3.13l-.14-.34a3.16,3.16,0,0,0-5.47-.54L62.61,44.64A3.17,3.17,0,0,1,60.38,46L4.31,52.2a3.16,3.16,0,0,0-1.63,5.59l36.4,29.42a3.14,3.14,0,0,1,1,3.44l-19.83,59.9a3.15,3.15,0,0,0,4.87,3.52l52.12-38.69a3.14,3.14,0,0,1,3.14-.36l31.85,13.86a3.16,3.16,0,0,0,4.37-3.4L110.16,86a3.15,3.15,0,0,1,.64-2.46S123.38,62.72,120.75,62.72Z"/><path class="cls-1" d="M23.25,156.21a4.65,4.65,0,0,1-2.73-.9,4.58,4.58,0,0,1-1.69-5.23l19.84-59.9a1.66,1.66,0,0,0-.53-1.8L1.74,59a4.65,4.65,0,0,1,2.41-8.24l56.06-6.24a1.63,1.63,0,0,0,1.17-.69l18.2-25.92a4.65,4.65,0,0,1,8.06.8l.15.33a4.69,4.69,0,0,1-.5,4.63l-4.72,6.45-.07-.15L68.19,50.29a7.87,7.87,0,0,1-5.52,3.28L20.19,58.28a1.65,1.65,0,0,0-.85,2.93l26.34,21.3A7.82,7.82,0,0,1,48.17,91l-14.23,43a1.65,1.65,0,0,0,2.55,1.84L74.07,108a7.86,7.86,0,0,1,7.77-.87l22.91,10a1.65,1.65,0,0,0,2.29-1.78l-4.81-29.48a7.9,7.9,0,0,1,1.58-6.09L117.1,63a4.64,4.64,0,0,1,3.65-1.76,1.82,1.82,0,0,1,1.6.92c.41.73,1.51,2.69-10.26,22.15l-.11.16a1.66,1.66,0,0,0-.34,1.29l6.45,39.5a4.65,4.65,0,0,1-6.45,5L79.79,116.39a1.66,1.66,0,0,0-1.64.19L26,155.27A4.61,4.61,0,0,1,23.25,156.21ZM83.38,18.88a1.62,1.62,0,0,0-1.35.71L63.83,45.5a4.64,4.64,0,0,1-3.29,2L4.48,53.69a1.65,1.65,0,0,0-.86,2.93L40,86a4.69,4.69,0,0,1,1.5,5.08L21.68,151a1.65,1.65,0,0,0,2.55,1.85l52.13-38.7a4.67,4.67,0,0,1,4.63-.53l31.85,13.86a1.61,1.61,0,0,0,1.67-.21,1.63,1.63,0,0,0,.62-1.57l-6.45-39.5a4.69,4.69,0,0,1,.88-3.55,177.54,177.54,0,0,0,9.28-17l-12.67,16a4.83,4.83,0,0,0-1,3.75l4.8,29.47a4.66,4.66,0,0,1-6.45,5l-22.91-10a4.82,4.82,0,0,0-4.78.54l-37.58,27.9a4.65,4.65,0,0,1-7.19-5.19l14.24-43a4.82,4.82,0,0,0-1.54-5.25L17.45,63.54a4.65,4.65,0,0,1,2.41-8.24l42.47-4.71a4.86,4.86,0,0,0,3.4-2L83,23.92l.12.26,1.7-2.33A1.64,1.64,0,0,0,85,20.21l-.15-.34a1.62,1.62,0,0,0-1.34-1Z"/><path class="cls-1" d="M100.56,7.2a2.56,2.56,0,0,0-.07-.7,7.18,7.18,0,0,0-14.33.7,7.18,7.18,0,0,0,14.33.7A2.56,2.56,0,0,0,100.56,7.2Z"/><path class="cls-1" d="M165.63,153.91c0,7.18-4.36,11-9.68,11-5.5,0-9.37-4.27-9.37-10.58,0-6.61,4.11-10.94,9.68-10.94S165.63,147.73,165.63,153.91Zm-16.17.34c0,4.46,2.41,8.45,6.65,8.45s6.68-3.93,6.68-8.66c0-4.15-2.17-8.48-6.65-8.48S149.46,149.68,149.46,154.25Z"/><path class="cls-1" d="M178.88,145.28v4.3h3.89v2.07h-3.89v8.08c0,1.85.52,2.9,2,2.9a6.17,6.17,0,0,0,1.57-.18l.13,2a6.6,6.6,0,0,1-2.41.37,3.78,3.78,0,0,1-2.94-1.14c-.78-.81-1.05-2.14-1.05-3.9v-8.17H173.9v-2.07h2.32V146Z"/><path class="cls-1" d="M199.2,156.94c0,5.54-3.84,7.95-7.46,7.95-4.05,0-7.17-3-7.17-7.7,0-5,3.28-7.95,7.42-7.95C196.29,149.24,199.2,152.37,199.2,156.94Zm-11.88.16c0,3.28,1.89,5.75,4.55,5.75s4.54-2.44,4.54-5.81c0-2.54-1.26-5.76-4.48-5.76S187.32,154.25,187.32,157.1Z"/><path class="cls-1" d="M205.32,156.45h.07c.37-.53.89-1.18,1.33-1.7l4.39-5.17h3.28l-5.79,6.16,6.59,8.81h-3.31l-5.16-7.17-1.4,1.54v5.63h-2.69v-22h2.69Z"/><path class="cls-1" d="M218.66,157.56c.06,3.68,2.41,5.2,5.13,5.2a9.74,9.74,0,0,0,4.15-.78l.46,2a12,12,0,0,1-5,.93c-4.61,0-7.36-3-7.36-7.55s2.66-8.07,7-8.07c4.89,0,6.19,4.3,6.19,7a10.16,10.16,0,0,1-.1,1.27Zm8-1.95c0-1.73-.71-4.42-3.78-4.42-2.75,0-4,2.54-4.17,4.42Z"/><path class="cls-1" d="M232.64,153.63c0-1.54,0-2.81-.12-4h2.41l.15,2.48h.06a5.51,5.51,0,0,1,5-2.82c2.08,0,5.29,1.24,5.29,6.37v8.94h-2.72v-8.63c0-2.41-.9-4.42-3.46-4.42a3.86,3.86,0,0,0-3.65,2.78,3.77,3.77,0,0,0-.19,1.27v9h-2.72Z"/><path class="cls-1" d="M269.29,142.59v18.1c0,1.33,0,2.84.13,3.86H267l-.12-2.6h-.06a5.54,5.54,0,0,1-5.1,2.94c-3.62,0-6.41-3.06-6.41-7.61,0-5,3.06-8,6.72-8a5,5,0,0,1,4.51,2.29h.06v-8.94Zm-2.72,13.09a5,5,0,0,0-.12-1.15,4,4,0,0,0-3.93-3.15c-2.81,0-4.48,2.47-4.48,5.78,0,3,1.48,5.54,4.42,5.54a4.1,4.1,0,0,0,4-3.25,4.86,4.86,0,0,0,.12-1.18Z"/><path class="cls-1" d="M282.1,164.55l-.21-1.88h-.1a5.57,5.57,0,0,1-4.57,2.22,4.26,4.26,0,0,1-4.58-4.3c0-3.62,3.21-5.6,9-5.56v-.31c0-1.24-.34-3.47-3.4-3.47a7.36,7.36,0,0,0-3.9,1.12l-.62-1.8a9.34,9.34,0,0,1,4.92-1.33c4.58,0,5.69,3.13,5.69,6.13V161a20.63,20.63,0,0,0,.25,3.59Zm-.4-7.64c-3-.06-6.34.47-6.34,3.37a2.4,2.4,0,0,0,2.57,2.6,3.74,3.74,0,0,0,3.62-2.5,3,3,0,0,0,.15-.87Z"/><path class="cls-1" d="M288.35,161.77a7.22,7.22,0,0,0,3.59,1.08c2,0,2.91-1,2.91-2.23s-.78-2-2.79-2.75c-2.69-1-4-2.44-4-4.24,0-2.41,1.95-4.39,5.17-4.39a7.49,7.49,0,0,1,3.68.93l-.68,2a5.84,5.84,0,0,0-3.06-.87c-1.61,0-2.51.93-2.51,2s.9,1.8,2.85,2.54c2.6,1,3.93,2.29,3.93,4.52,0,2.63-2.05,4.48-5.6,4.48a8.53,8.53,0,0,1-4.21-1Z"/><path class="cls-1" d="M309.05,157.56c.06,3.68,2.41,5.2,5.13,5.2a9.77,9.77,0,0,0,4.15-.78l.46,2a12,12,0,0,1-5,.93c-4.61,0-7.36-3-7.36-7.55s2.66-8.07,7-8.07c4.89,0,6.18,4.3,6.18,7a10.59,10.59,0,0,1-.09,1.27Zm8-1.95c0-1.73-.72-4.42-3.78-4.42-2.75,0-4,2.54-4.17,4.42Z"/><path class="cls-1" d="M322.66,161.77a7.16,7.16,0,0,0,3.59,1.08c2,0,2.9-1,2.9-2.23s-.77-2-2.78-2.75c-2.69-1-4-2.44-4-4.24,0-2.41,1.95-4.39,5.17-4.39a7.55,7.55,0,0,1,3.68.93l-.68,2a5.85,5.85,0,0,0-3.07-.87c-1.6,0-2.5.93-2.5,2s.9,1.8,2.84,2.54c2.6,1,3.93,2.29,3.93,4.52,0,2.63-2,4.48-5.6,4.48a8.49,8.49,0,0,1-4.2-1Z"/><path class="cls-1" d="M338.56,145.28v4.3h3.89v2.07h-3.89v8.08c0,1.85.52,2.9,2,2.9a6.26,6.26,0,0,0,1.58-.18l.12,2a6.6,6.6,0,0,1-2.41.37,3.78,3.78,0,0,1-2.94-1.14c-.77-.81-1.05-2.14-1.05-3.9v-8.17h-2.32v-2.07h2.32V146Z"/><path class="cls-1" d="M345.52,154.25c0-1.76,0-3.28-.13-4.67h2.39l.09,2.94H348a4.49,4.49,0,0,1,4.15-3.28,3,3,0,0,1,.77.09v2.57a4.25,4.25,0,0,0-.93-.09c-1.92,0-3.28,1.45-3.65,3.49a8.06,8.06,0,0,0-.12,1.27v8h-2.69Z"/><path class="cls-1" d="M356.84,157.56c.06,3.68,2.41,5.2,5.13,5.2a9.74,9.74,0,0,0,4.15-.78l.46,2a12,12,0,0,1-5,.93c-4.61,0-7.36-3-7.36-7.55s2.66-8.07,7-8.07c4.89,0,6.19,4.3,6.19,7a10.59,10.59,0,0,1-.09,1.27Zm8-1.95c0-1.73-.71-4.42-3.77-4.42-2.76,0-4,2.54-4.18,4.42Z"/><path class="cls-1" d="M370.82,142.59h2.72v22h-2.72Z"/><path class="cls-1" d="M386.41,164.55l-.22-1.88h-.09a5.57,5.57,0,0,1-4.58,2.22,4.26,4.26,0,0,1-4.57-4.3c0-3.62,3.21-5.6,9-5.56v-.31c0-1.24-.34-3.47-3.4-3.47a7.36,7.36,0,0,0-3.9,1.12l-.62-1.8a9.34,9.34,0,0,1,4.92-1.33c4.57,0,5.69,3.13,5.69,6.13V161a20.63,20.63,0,0,0,.25,3.59Zm-.4-7.64c-3-.06-6.34.47-6.34,3.37a2.4,2.4,0,0,0,2.57,2.6,3.72,3.72,0,0,0,3.61-2.5,2.67,2.67,0,0,0,.16-.87Z"/><path class="cls-1" d="M392.66,161.77a7.22,7.22,0,0,0,3.59,1.08c2,0,2.91-1,2.91-2.23s-.78-2-2.79-2.75c-2.69-1-3.95-2.44-3.95-4.24,0-2.41,1.94-4.39,5.16-4.39a7.49,7.49,0,0,1,3.68.93l-.68,2a5.84,5.84,0,0,0-3.06-.87c-1.61,0-2.51.93-2.51,2s.9,1.8,2.85,2.54c2.6,1,3.93,2.29,3.93,4.52,0,2.63-2,4.48-5.6,4.48a8.53,8.53,0,0,1-4.21-1Z"/><rect class="cls-1" x="144" y="56.13" width="15.7" height="72.85"/><path class="cls-1" d="M200.33,55.32A29.54,29.54,0,0,1,225.1,69.08V28.61H241V129H225.1V116c-5.5,8.25-14.57,13.76-24.77,13.76-20.07,0-35.29-16.35-35.29-37.24S180.26,55.32,200.33,55.32Zm2.59,62.32c10.36,0,22.18-8.57,22.18-25.09,0-13.92-9.55-25.09-22.18-25.09-12.14,0-22,11.33-22,25.09C180.91,106.64,190.78,117.64,202.92,117.64Z"/><path class="cls-1" d="M283.22,55.48a37.07,37.07,0,1,1-36.91,37.07A37,37,0,0,1,283.22,55.48ZM258.94,92.55c0,14.57,10.84,26.39,24.28,26.39,13.27,0,24.12-11.82,24.12-26.39,0-14.89-11.17-26.38-24.12-26.38C269.78,66.17,258.94,78,258.94,92.55Z"/><path class="cls-1" d="M326.76,129V28.77h12.63V129Z"/><path class="cls-1" d="M378.73,55.48c18.29,0,30.59,9.39,30.59,20.89H395.4c0-6.16-7.45-11.17-16.67-11.17-10,0-17.33,4.85-17.33,11.17s7,11.33,17.33,11.33c19.1,0,30.59,9.22,30.59,20.39,0,11.5-12.46,21.53-30.59,21.53-17,0-30.6-9.38-30.6-21h13.92c0,6.31,7.45,11.33,16.68,11.33,10,0,17.32-5,17.32-11.33s-6.8-11.17-17.32-11.17c-20.4,0-30.6-10-30.6-20.4C348.13,65,361.73,55.48,378.73,55.48Z"/><circle class="cls-1" cx="151.85" cy="36.61" r="8"/></g></g></svg>