<svg xmlns="http://www.w3.org/2000/svg" viewBox="0 0 169.65 169.66"><g id="Camada_2" data-name="Camada 2"><g id="Camada_1-2" data-name="Camada 1"><g id="DbiY92.tif"><path d="M80.72,72.73c-21.21-3-33.89-21.27-32.11-39.46C50.54,13.58,66.44-.41,85.82,0a36.48,36.48,0,0,1,35.26,34c1.2,19.23-12.28,35.48-31.92,38.69,2.12.23,4.23.46,6.34.71A83,83,0,0,1,124,82.33c3.29,1.72,4.47,5.21,2.86,8.3s-5.13,4.12-8.44,2.42A73.78,73.78,0,0,0,82.9,84.83c-29.6.52-57,20.43-66.65,48.42a78,78,0,0,0-4.17,22.22c-.07,1.61.27,2.1,2,2.1q31.71-.1,63.42,0a12.46,12.46,0,0,1,2.45.13,6,6,0,0,1-1,12c-1.33.06-2.65,0-4,0H7.35c-4.57,0-6.8-1.91-7.12-6.48a81.27,81.27,0,0,1,12.64-50.49c14.69-23.08,35.9-36.08,63-39.53C77.47,72.94,79.1,72.87,80.72,72.73ZM109,36.43A24.23,24.23,0,1,0,84.57,60.57,24.25,24.25,0,0,0,109,36.43Z"/><path d="M157.49,104.46,135,109.23c-3.94.83-7.88,1.71-11.84,2.47-1.4.28-2,.69-2,2.37.09,13.31.07,26.62,0,39.93a15,15,0,0,1-13.24,15.44c-8.17,1.27-16.19-5.11-17-13.51-.82-8.55,5.83-16.29,14.21-16.62,1.23,0,2.84.67,3.6-.2s.26-2.54.27-3.85c0-9.09,0-18.17,0-27.25,0-4.2,1.52-6.15,5.6-7q23.56-5,47.14-10c4.57-1,7.88,1.75,7.88,6.41q0,20.53,0,41.07a2.26,2.26,0,0,1,0,.94c-1.29,2.67-.26,5.3,0,8a15.18,15.18,0,1,1-13.77-14c1.5.14,1.76-.16,1.75-1.57-.06-8.51,0-17,0-25.54Zm-3,41a3,3,0,1,0,2.94,3.05A3,3,0,0,0,154.54,145.41ZM106,157.51a3,3,0,1,0-3-3A3.07,3.07,0,0,0,106,157.51Z"/></g></g></g></svg>