<svg xmlns="http://www.w3.org/2000/svg" viewBox="0 0 310.99 387.86"><defs><style>.cls-1{fill:#fff;}</style></defs><g id="Camada_2" data-name="Camada 2"><g id="Camada_1-2" data-name="Camada 1"><g id="E6uPNF.tif"><path class="cls-1" d="M154.49,387.86c-5.6-1.53-11.5-1.14-17.09-2.88-11.89-3.7-23.18-8.94-34.75-13.48-26.38-10.35-52.65-21-79-31.5C3.39,331.9-5.54,309.74,3.56,289.91Q19.73,254.63,36,219.38c6.37-13.76,17.7-17.73,31.06-10.27,13.94,7.79,27.89,15.34,43.5,19.27,38.3,9.65,74.68,5,109.09-14.52,4.62-2.61,9-5.59,14.15-7.22,11.63-3.7,22.32-.39,28.47,10.14,15.23,26.07,30,52.39,44.84,78.71,1.82,3.23,2.62,7,3.9,10.58v7c-3,14.79-13.15,22.32-26.55,27.42-17.32,6.59-34.06,14.69-51.41,21.19-25.25,9.46-48.54,24.78-76.55,26.2Z"/><path class="cls-1" d="M46.07,101.57C46.12,45.74,91.91-.06,147.62,0s101.5,45.83,101.47,101.62S203.31,203.21,147.56,203.19,46,157.31,46.07,101.57Z"/></g></g></g></svg>